<svg aria-hidden="true" style="width:0;height:0;position:absolute;overflow:hidden" xmlns="http://www.w3.org/2000/svg"><defs><symbol id="phone" viewBox="0 0 32 32"><path d="M11.317 13.657a18.76 18.76 0 0 0 7.026 7.026l1.572-2.201a1.778 1.778 0 0 1 2.3-.526 20.3 20.3 0 0 0 8.148 2.425A1.78 1.78 0 0 1 32 22.154v7.932a1.775 1.775 0 0 1-1.597 1.768c-.942.098-1.892.146-2.848.146C12.337 32-.001 19.662-.001 4.444c0-.956.048-1.906.146-2.848A1.778 1.778 0 0 1 1.914 0h7.932a1.778 1.778 0 0 1 1.773 1.637 20.304 20.304 0 0 0 2.425 8.148 1.776 1.776 0 0 1-.526 2.3l-2.201 1.572zm-4.483-1.168 3.378-2.412a23.827 23.827 0 0 1-1.95-6.521H3.574c-.011.295-.016.592-.016.889-.002 13.255 10.743 24 23.998 24 .297 0 .594-.005.889-.018v-4.688a23.862 23.862 0 0 1-6.521-1.95l-2.412 3.378a22.103 22.103 0 0 1-2.823-1.333l-.103-.059a22.32 22.32 0 0 1-8.359-8.359l-.059-.103a22.103 22.103 0 0 1-1.333-2.823z"/></symbol><symbol id="menu" viewBox="0 0 32 32"><path d="M0 9.333h32V12H0V9.333zM0 20h32v2.667H0V20z"/></symbol><symbol id="close" viewBox="0 0 32 32"><path d="M27.312 1.857 1.856 27.313l2.828 2.828L30.14 4.685l-2.828-2.828z"/><path d="m4.688 1.857 25.456 25.456-2.828 2.828L1.86 4.685l2.828-2.828z"/></symbol><symbol id="vk" viewBox="0 0 32 32"><path stroke-width=".727" d="M28.488 9.703c.184-.574 0-.976-.86-.976h-2.865c-.737 0-1.064.364-1.248.766 0 0-1.453 3.33-3.52 5.474-.675.632-.962.823-1.33.823-.184 0-.45-.191-.45-.766V9.703c0-.689-.205-.976-.818-.976h-4.502c-.45 0-.737.325-.737.612 0 .651 1.023.804 1.146 2.603v3.943c0 .861-.164 1.014-.532 1.014-.962 0-3.335-3.33-4.727-7.158-.287-.708-.553-1.014-1.289-1.014H3.891c-.819 0-.982.364-.982.766 0 .708.962 4.23 4.522 8.88 2.374 3.177 5.709 4.899 8.738 4.899 1.821 0 2.046-.383 2.046-1.033v-2.412c0-.766.164-.919.757-.919.43 0 1.146.191 2.845 1.722 1.944 1.818 2.271 2.641 3.356 2.641h2.865c.818 0 1.228-.383.982-1.129-.266-.746-1.187-1.837-2.415-3.139-.675-.746-1.678-1.531-1.965-1.933-.43-.517-.307-.746 0-1.187 0-.019 3.499-4.612 3.847-6.182z"/></symbol><symbol id="pinterest" viewBox="0 0 32 32"><path d="M17.694 3.769a12.352 12.352 0 0 0-13.571 8.889 12.351 12.351 0 0 0 6.944 14.662 9.586 9.586 0 0 1 .201-2.831c.228-1.036 1.6-6.745 1.6-6.745a4.613 4.613 0 0 1-.4-1.947c0-1.833 1.058-3.201 2.374-3.201a1.656 1.656 0 0 1 1.254.552 1.646 1.646 0 0 1 .403 1.31c0 1.111-.713 2.793-1.086 4.37a1.91 1.91 0 0 0 .372 1.678 1.906 1.906 0 0 0 1.572.696c2.343 0 3.913-3.001 3.913-6.545 0-2.716-1.799-4.751-5.115-4.751a5.863 5.863 0 0 0-5.637 3.604 5.85 5.85 0 0 0-.449 2.314 3.657 3.657 0 0 0 .8 2.432.59.59 0 0 1 .2.684c-.057.227-.2.769-.257.968a.441.441 0 0 1-.235.316.435.435 0 0 1-.394-.002c-1.709-.684-2.514-2.564-2.514-4.711 0-3.515 2.943-7.722 8.832-7.722 4.686 0 7.802 3.428 7.802 7.095 0 4.826-2.688 8.454-6.659 8.454a3.53 3.53 0 0 1-3.03-1.538s-.714 2.859-.854 3.4a9.896 9.896 0 0 1-1.258 2.631 11.92 11.92 0 0 0 3.514.514 12.32 12.32 0 0 0 8.732-3.615 12.329 12.329 0 0 0 3.608-8.735 12.346 12.346 0 0 0-10.66-12.226l-.003-.001z"/></symbol><symbol id="tg" viewBox="0 0 32 32"><path d="M3.4 14.034c7.999-3.823 13.333-6.343 16.002-7.561 7.62-3.477 9.203-4.081 10.236-4.101.227-.004.734.057 1.063.35.277.247.354.581.391.815s.082.768.046 1.185c-.413 4.759-2.2 16.31-3.109 21.64-.385 2.256-1.142 3.012-1.875 3.086-1.593.161-2.803-1.155-4.347-2.265-2.415-1.737-3.779-2.818-6.124-4.512-2.709-1.958-.953-3.035.591-4.794.404-.46 7.425-7.466 7.561-8.101.017-.079.033-.376-.128-.532s-.397-.103-.568-.06c-.242.06-4.1 2.858-11.574 8.392-1.095.825-2.087 1.227-2.976 1.206-.98-.023-2.864-.608-4.265-1.107-1.718-.613-3.084-.937-2.965-1.977.062-.542.742-1.096 2.041-1.663z"/></symbol><symbol id="logo" viewBox="0 0 57 32"><path fill="#fff" d="M56.354 22.257c-.157-.704-.478-1.343-.85-1.957a4.685 4.685 0 0 0-1.445-1.497 4.733 4.733 0 0 0-1.977-.762c-1.416-.222-2.946.128-4.08 1.02-.457.358-.911.937-1.039 1.517-.023.102-.08.422.118.369.234-.062.46-.397.644-.552a3.751 3.751 0 0 1 1.733-.819c.687-.126 1.414-.189 2.107-.09.637.09 1.224.451 1.676.901.477.473.931 1.151 1.106 1.808.354 1.325.278 2.814-.13 4.124-.108.346-.247.726-.465 1.018-.076.1-.157.243-.279.291-.141.057-.237-.082-.316-.174-.257-.297-.511-.598-.793-.875-.19-.187-.593-.422-.495-.736.115-.366.247-.704.29-1.09.038-.348.052-.691.021-1.041-.062-.701-.319-1.304-.849-1.781-.492-.443-1.127-.647-1.761-.401-.644.251-1.006.783-.801 1.482.167.573.778.814 1.329.701a.926.926 0 0 0 .701-.578c.066-.151.111-.309.12-.474.007-.095-.069-.341-.016-.437 0 .021.075-.002.043-.013.223.044.403.415.505.586.151.258.251.565.277.862.052.594.041 1.212-.247 1.747-.151.281-.39.115-.59-.026-.238-.166-.472-.33-.729-.465-.6-.312-1.191-.601-1.832-.821a14.873 14.873 0 0 0-1.021-.319c-.354-.095-.293-.355-.331-.665-.088-.722-.354-1.415-.719-2.039a19.785 19.785 0 0 0-1.235-1.886c-.465-.621-.963-1.217-1.412-1.849-.092-.13-.565-.719-.416-.88.108-.118.475.071.595.102.66.169 1.34.238 2.019.271a12.433 12.433 0 0 0 4.527-.64c2.544-.859 5.207-2.702 5.417-5.62.101-1.392-.18-2.824-.995-3.975-.813-1.149-2.047-1.89-3.374-2.29a13.062 13.062 0 0 0-2.174-.437c-.754-.095-1.555-.159-2.313-.126-.745.034-1.511.059-2.236.236-.36.087-.716.128-1.072.24-.339.105-.696.181-1.027.312-.711.284-1.401.576-2.073.947-.644.356-1.273.737-1.879 1.154-.618.425-1.216.885-1.783 1.376-.098.084-.483.54-.606.305-.092-.174-.052-.425-.059-.616a6.013 6.013 0 0 1 1.358-4.045c.442-.54.95-1.09 1.543-1.466.328-.205.644-.427.988-.604.308-.159.636-.279.955-.415 1.319-.555 2.815-.717 4.232-.65.349.016.729.117 1.052.248.265.108.498.407.8.254.526-.266 1.088-.149 1.637-.312.092-.026.244-.112.152-.23-.074-.095-.242-.115-.351-.14a12.326 12.326 0 0 0-.976-.181C46.767.039 45.982.011 45.187 0c-1.488-.023-2.961.194-4.347.755-1.363.552-2.638 1.286-3.598 2.43a6.648 6.648 0 0 0-1.073 1.84c-.259.655-.351 1.374-.426 2.067a6.11 6.11 0 0 0-.026 1.082c.016.253.121.594-.026.824-.2.312-.503.575-.752.847-.216.236-.379.519-.573.775a11.776 11.776 0 0 0-1.217 1.942c-.339.691-.585 1.397-.829 2.126-.493 1.468-.588 3.009-.526 4.546.031.75.164 1.494.349 2.22.179.699.398 1.41.696 2.069-1.178-.069-2.376-.138-2.753.122.025-.016 2.287 2.981 1.234 4.986-1.167-1.052-4.574-4.049-3.006-5.208 1.212-.895 2.731-2.596 2.069-4.254-.678-1.704-3.046-1.277-4.08-.217-2.02 2.057.613 4.251-1.16 5.771a4.78 4.78 0 0 0-.57.58c.08-.259.134-.527.156-.808a7.5 7.5 0 0 0-.154-2.246c-.157-.704-.478-1.343-.849-1.957a4.692 4.692 0 0 0-1.447-1.497 4.732 4.732 0 0 0-1.978-.762c-1.416-.222-2.946.128-4.078 1.02-.457.358-.913.937-1.04 1.517-.023.102-.08.422.12.369.236-.062.46-.397.644-.552a3.751 3.751 0 0 1 1.733-.819c.686-.126 1.416-.189 2.109-.09.636.09 1.222.451 1.676.901.477.473.931 1.151 1.106 1.808.354 1.325.277 2.814-.129 4.124-.108.346-.247.726-.467 1.018-.075.1-.157.243-.279.291-.141.057-.236-.082-.316-.174-.259-.297-.511-.598-.791-.875-.19-.187-.593-.422-.496-.735.115-.366.247-.704.29-1.09.039-.348.052-.691.021-1.041-.062-.701-.32-1.304-.85-1.781-.49-.443-1.127-.647-1.76-.401-.646.251-1.006.783-.803 1.482.169.573.778.814 1.33.701a.926.926 0 0 0 .701-.578c.066-.151.11-.309.12-.474.005-.095-.069-.341-.018-.437 0 .021.077-.002.043-.013.223.044.405.415.505.586.152.258.251.563.279.862.051.594.039 1.212-.249 1.747-.151.281-.39.115-.588-.026-.238-.166-.472-.33-.731-.465-.6-.312-1.191-.601-1.832-.821a14.9 14.9 0 0 0-1.022-.319c-.354-.094-.292-.355-.329-.665-.09-.722-.354-1.415-.719-2.041a19.426 19.426 0 0 0-1.237-1.886c-.464-.621-.962-1.217-1.412-1.849-.09-.13-.564-.719-.415-.88.108-.118.475.071.595.102.66.169 1.339.238 2.017.271a12.433 12.433 0 0 0 4.527-.64c2.546-.859 5.207-2.702 5.418-5.62.1-1.392-.182-2.824-.996-3.975-.811-1.149-2.046-1.89-3.373-2.29a13.082 13.082 0 0 0-2.174-.437c-.754-.095-1.555-.159-2.313-.126-.745.034-1.511.059-2.236.236-.36.087-.716.128-1.072.24-.341.105-.696.181-1.027.312-.711.284-1.401.576-2.073.947-.644.356-1.273.737-1.879 1.154-.618.425-1.216.885-1.783 1.376-.098.084-.482.54-.606.305-.092-.174-.051-.425-.059-.616A6 6 0 0 1 5.75 3.63l-.008.01c.442-.54.95-1.09 1.545-1.466.326-.205.644-.427.988-.604.31-.159.636-.279.957-.415 1.321-.547 2.816-.709 4.235-.642.347.016.727.117 1.05.248.265.108.498.407.8.254.528-.266 1.088-.149 1.637-.312.092-.026.244-.112.152-.23-.074-.095-.242-.115-.349-.14a12.521 12.521 0 0 0-.977-.181c-.786-.115-1.571-.143-2.364-.154-1.489-.023-2.962.194-4.347.755-1.365.552-2.638 1.286-3.598 2.43a6.654 6.654 0 0 0-1.075 1.84c-.259.655-.351 1.374-.424 2.067a6.207 6.207 0 0 0-.026 1.082c.016.253.123.594-.026.824-.198.312-.505.575-.752.847-.216.236-.377.519-.572.775a11.854 11.854 0 0 0-1.219 1.942c-.339.691-.583 1.397-.827 2.126-.493 1.468-.588 3.009-.526 4.546.031.75.164 1.494.351 2.22.182.712.406 1.44.714 2.108.315.685.616 1.359.998 2.011.138.233.449.55.21.809-.226.246-.47.463-.675.731-.405.529-.788 1.136-.849 1.814-.059.662.062 1.34.518 1.844 1.009 1.115 2.605 1.29 4.027 1.21.709-.039 1.434-.123 2.115-.33.351-.107.711-.215 1.049-.355.292-.122.618-.355.939-.228 1.34.534 2.877.726 4.309.734 1.45.008 2.977-.218 4.353-.683a9.318 9.318 0 0 0 2.063-.957c.326-.209.763-.53 1.058-.78l1.09-.025c-.103-.33.12-.993.321-1.2.4-.407.803-.841 1.149-1.307-.827 2.96 1.956 6.198 5.484 4.5.629-.307 1.412-.823 1.902-1.32.444.366 1.999 1.111 2.943 1.497l.002.002c.126.059.254.113.387.159.821.294 1.75.341 2.615.292.709-.039 1.434-.123 2.115-.33.351-.107.709-.215 1.049-.355.292-.122.618-.355.94-.228 1.339.534 2.877.726 4.307.734 1.45.008 2.979-.218 4.355-.683a9.261 9.261 0 0 0 2.061-.957c.326-.209.764-.53 1.06-.78l1.088-.025c-.101-.33.118-.993.323-1.2.994-1.015 2.01-2.174 2.123-3.661a7.542 7.542 0 0 0-.156-2.241zm-42.34 4.94c.162-.195.295-.422.418-.644.264-.473.483-.993.608-1.522l.002-.01v-.002l.003-.016.006-.026-.001.003v-.002l.005-.016v-.002c.059-.254.131-.415.434-.3.262.099.539.158.811.225.554.14 1.134.369 1.64.63.283.144.552.315.818.494.175.118.377.269.195.481-.364.415-.826.68-1.316.923-.536.264-1.14.348-1.732.366-.315.008-.631-.023-.945-.035-.297-.011-.595-.021-.885-.092-.305-.079-.223-.261-.061-.456zm-.881-1.789a4.074 4.074 0 0 1-.359 1.528c-.125.274-.26.312-.536.181-.247-.117-.501-.215-.745-.34-1.078-.55-2.084-1.194-2.934-2.064-.364-.373.233-.379.493-.427.6-.113 1.201-.102 1.807-.125l.021-.002c.008 0 .018 0 .028-.002l.034-.002c.007-.002.013-.002.02-.002h.005l.021-.002.016-.002c.31-.013.616-.038.927-.033.305.003.65-.016.949.054.367.094.264.954.252 1.235zm-1.365-4.219c.395.612.827 1.24 1.045 1.942.126.412-.396.266-.649.264-.375-.003-.75.012-1.126.035-.724.046-1.453.105-2.171.22-.267.043-.459.079-.649.12l.084-.015c-.138.03-.277.112-.419.059-.202-.074-.352-.479-.442-.655-.326-.637-.551-1.322-.726-2.011-.098-.384-.133-.795-.19-1.189a5.035 5.035 0 0 1-.016-1.138c.106-1.359.283-2.822 1.106-3.955l.01-.013c.013-.02.02-.026.02-.026v-.002c.239-.312.514-.023.77.146.287.19.573.397.882.552.131.066.274.14.287.304.013.161-.023.327-.023.488.004.373.055.733.146 1.076l-.007-.03c.179.686.552 1.308.891 1.924.362.658.773 1.277 1.178 1.904zm-5.912-1.953c.074 1.502.59 2.881 1.176 4.249.121.282.279.519-.102.629-.202.059-.588.302-.773.131-.202-.184-.315-.525-.419-.768a5.11 5.11 0 0 1-.326-.951c-.305-1.423-.419-2.929-.149-4.365.244-1.299.849-2.673 1.742-3.659.003-.003.01-.008.016-.016l.02-.021c.079-.08.305-.291.351-.108.034.141-.115.323-.185.43a7.896 7.896 0 0 0-.737 1.397c-.388.949-.664 2.019-.613 3.054zM4.731 9.087c.221-.241.493-.452.734-.673a17.15 17.15 0 0 1 1.699-1.351c.311-.22.636-.419.952-.632.3-.202.621-.345.937-.517a13.353 13.353 0 0 1 6.469-1.67c.678.008 1.329.098 1.996.204 1.402.22 2.843.85 3.868 1.849a5.291 5.291 0 0 1 1.198 1.735c.272.652.357 1.404.346 2.106a5.453 5.453 0 0 1-1.404 3.577c-.97 1.075-2.404 1.775-3.791 2.121a13.146 13.146 0 0 1-4.506.317c-.372-.038-.726-.107-1.093-.177-.252-.048-.578-.133-.803-.259-.269-.151-.113-.593-.061-.826.074-.319.203-.589.375-.864.184-.294.439-.555.6-.86.141-.269-.052-.389-.315-.299-.616.215-1.206.68-1.607 1.187-.218.276-.326.594-.493.896-.154.282-.451.061-.659-.043-.29-.144-.606-.297-.873-.486-.241-.172-.034-.373.128-.512a7.218 7.218 0 0 1 3.6-1.698l.042-.006c.157-.025.351-.079.496.018.118.079.193.207.293.305.22.22.475.417.742.576.595.351 1.329.476 2.009.488.77.013 1.498-.172 2.202-.478.654-.282 1.296-.652 1.766-1.197.088-.102.475-.607.129-.635-.201-.016-.431.138-.619.195a3.002 3.002 0 0 1-1.974-.123c-.559-.235-1.216-.619-1.437-1.222-.229-.635.2-.926.613-1.3l.003-.002v-.002h.002l.008-.01c.2-.181-.034-.199-.193-.144a2.167 2.167 0 0 0-.442.204l.009-.005c-.29.177-.513.424-.775.634-.575.458-1.324.732-1.996 1.008-.731.297-1.448.626-2.159.967-.672.322-1.352.634-1.989 1.018-.329.199-.657.394-.97.621-.21.151-.518.488-.772.256-.505-.458-.952-1.064-1.324-1.632-.198-.302-.419-.627-.552-.965-.125-.315.159-.497.374-.673a6.952 6.952 0 0 1 1.615-.997c.3-.131.6-.25.921-.319.102-.023.446-.144.518-.028.052.087-.052.255-.077.337a1.077 1.077 0 0 0-.034.488c.044.266.182.537.4.698.49.361 1.258.291 1.586-.251.328-.54.231-1.202-.277-1.592-.534-.412-1.335-.286-1.948-.158-.179.038-.375.038-.542.112-.152.066-.298.143-.452.202-.341.133-.65.323-.967.502a7.27 7.27 0 0 0-.878.594c-.159.123-.451.476-.603.177-.115-.225-.234-.58-.044-.786zM.908 18.634l-.002.013-.002.015v.002c0 .003 0 .007-.002.01v.008L.9 18.69v.005l-.002.008v.002c-.015.209-.026.427-.113.619-.134-.184-.084-.525-.09-.739-.008-.289-.052-.565-.043-.859.016-.566.11-1.118.177-1.681.175-1.437.781-2.832 1.486-4.078.372-.658.821-1.282 1.322-1.85.082-.094.406-.598.537-.348.052.102.064.22.102.327.047.13.12.266.057.404-.08.172-.244.323-.357.473-.111.146-.223.294-.333.443-.215.291-.426.58-.613.89-.39.652-.703 1.331-1.011 2.023-.3.675-.516 1.382-.68 2.101-.164.729-.377 1.463-.434 2.205zm1.399 6.18a6.373 6.373 0 0 1-.441-.975c-.477-1.392-.59-2.916-.521-4.377.036-.752.12-1.525.29-2.259a14.15 14.15 0 0 1 .639-2.082c.293-.721.531-1.45.936-2.121.365-.601.7-1.218 1.18-1.737.011-.013.023-.023.034-.034.008-.008.008-.01.008-.01.213-.222.329-.08.449.154.151.297.354.561.549.831.202.277.426.537.654.793.197.222.467.425.624.676.141.223-.226.492-.367.619-.262.238-.467.517-.69.788a10.461 10.461 0 0 0-1.145 1.675c-1.281 2.41-2.053 5.137-1.311 7.841.049.181.095.364.164.54.044.112.116.266.054.384-.09.174-.372.343-.539.179-.239-.233-.41-.596-.567-.885zm5.763 5.987c-.28.171-.603.261-.911.369-.719.253-1.493.333-2.251.355-1.122.033-2.682-.199-3.37-1.205-.844-1.235.054-2.757 1.095-3.536.295-.222.546.245.719.433.241.261.496.506.76.744.519.468 1.037.962 1.617 1.358.005.003.01.007.016.009h.001l.059.039.003.002.008.005c.146.105.283.24.475.238.026-.186-.265-.369-.388-.461-.18-.136-.369-.261-.536-.412a12.618 12.618 0 0 1-1.091-1.115c-.303-.345-.668-.744-.87-1.159-.08-.166.036-.31.193-.366.151-.054.254.122.315.227.464.8 1.072 1.551 1.714 2.213.668.691 1.401 1.29 2.222 1.793.182.11.537.277.221.47zm2.752-1.778c-.282-.048-.588-.266-.829-.412a6.674 6.674 0 0 1-1.539-1.241 19.584 19.584 0 0 1-1.278-1.579c-.17-.233-.401-.484-.516-.75-.098-.23.175-.266.341-.309l.003-.002c.002-.002.002-.002.002 0l.002-.002.01-.002.016-.005a.128.128 0 0 1 .031-.008c.002-.002.005-.002.008-.003.002 0 .003-.002.007-.002l.005-.002c.244-.079.549-.2.76 0 .208.199.4.412.611.607.485.45.991.87 1.535 1.249s1.116.721 1.707 1.023c.144.072.567.213.434.437-.129.218-.382.42-.567.589-.192.172-.462.458-.744.41zm7.111.942c-.38.419-1.134.346-1.64.335-.706-.016-1.421-.049-2.117-.172a12.862 12.862 0 0 1-2.032-.548c-.075-.026-.283-.077-.29-.181-.008-.115.202-.232.274-.291.239-.199.478-.397.709-.601l.002-.002.005-.005.002-.002s.011-.008.021-.02l.03-.026.002-.002c.254-.217.423-.254.77-.187.338.066.683.087 1.027.105.655.034 1.316.034 1.968-.074.07-.013.603-.184.49.041-.107.215-.287.736.041.568.405-.2 1.257.494.739 1.061zm2.83-1.669c-.206.076-.457.095-.675.095-.573 0-1.119-.294-1.683-.387l-.013-.002h-.002C18.383 28 18.379 28 18.374 28h-.002l-.002-.002h-.003l-.008-.002c-.111-.016-.231-.025-.326-.094.079-.148.239-.215.375-.297.174-.105.315-.199.453-.298l-.02.014c.223-.159.405-.374.626-.529.228-.158.451.149.593.294.226.232.433.483.659.713.159.156.337.387.044.496zm5.862-8.234.003-.015v-.002c.002-.005.002-.01.003-.016l.007-.031v-.002l.003-.013c.002-.002.002-.003.002-.005.634-2.632 4.855.939.647 3.421-.488-1.013-.898-2.2-.665-3.338zm3.316 10.097-.005.003-.025.016-.008.005-.021.013c-3.67 2.279-6.624-3.026-3.511-5.615 1.003 1.954 2.467 3.714 4.09 5.175-.174.133-.346.268-.519.402zm15.852-2.962c.162-.195.293-.422.418-.644.264-.473.483-.993.606-1.522 0-.002 0-.003.002-.005s.002-.007.002-.013c.003-.007.003-.015.007-.021l.002-.013c.002-.008.003-.016.007-.023 0-.002.002-.003.002-.003.057-.251.133-.41.433-.296.262.099.539.158.809.225a7.632 7.632 0 0 1 2.456 1.124c.175.118.377.269.193.481-.364.415-.824.68-1.314.923-.536.264-1.14.348-1.733.366-.315.008-.629-.023-.945-.034-.295-.012-.595-.021-.883-.092-.303-.076-.221-.258-.059-.453zm-.882-1.789a4.112 4.112 0 0 1-.359 1.528c-.126.274-.262.312-.537.181-.247-.117-.5-.215-.745-.34-1.076-.55-2.084-1.194-2.933-2.064-.364-.373.233-.379.492-.427.601-.113 1.201-.102 1.809-.125l.021-.002c.008 0 .018 0 .028-.002l.034-.002c.007-.002.011-.002.02-.002h.005l.021-.002.016-.002c.31-.013.616-.038.927-.033.305.003.65-.016.949.056.365.092.262.952.252 1.233zm-1.364-4.219c.395.612.827 1.24 1.044 1.942.128.412-.397.266-.649.264-.375-.003-.749.012-1.124.035-.724.046-1.453.105-2.171.22-.267.043-.459.079-.649.12l.084-.015c-.138.03-.275.112-.421.059-.2-.074-.351-.479-.441-.655-.326-.637-.55-1.322-.726-2.011-.098-.384-.134-.795-.19-1.189a5.154 5.154 0 0 1-.018-1.138c.106-1.35.28-2.799 1.088-3.93.007-.008.011-.016.02-.026l.002-.002.021-.03c.242-.327.521-.034.778.138.288.19.575.397.883.552.131.066.274.14.287.304.011.161-.025.327-.023.488.004.373.054.733.145 1.077l-.007-.031c.18.686.554 1.308.891 1.924.36.658.77 1.277 1.176 1.904zm-5.912-1.953c.074 1.502.59 2.881 1.176 4.249.121.282.279.519-.102.629-.202.059-.588.302-.773.131-.2-.184-.315-.525-.419-.768a5.42 5.42 0 0 1-.326-.951c-.303-1.423-.418-2.929-.149-4.365.244-1.299.849-2.671 1.74-3.656l.005-.005.005-.005.016-.018v-.002l.002-.002.005-.005.003-.005s.002 0 .002-.002l.002-.002c.08-.08.306-.291.351-.108.034.141-.115.323-.184.43-.3.451-.532.895-.737 1.397-.392.952-.668 2.023-.616 3.057zM36.508 9.087c.221-.241.492-.452.734-.673a17.267 17.267 0 0 1 1.699-1.351c.311-.22.636-.419.95-.632.3-.202.623-.345.937-.517a13.353 13.353 0 0 1 6.469-1.67c.678.008 1.329.098 1.996.204 1.401.22 2.843.85 3.87 1.849a5.288 5.288 0 0 1 1.197 1.735c.274.652.357 1.404.346 2.106a5.453 5.453 0 0 1-1.404 3.577c-.968 1.075-2.404 1.775-3.79 2.121a13.15 13.15 0 0 1-4.506.317c-.372-.038-.726-.107-1.095-.177-.251-.048-.577-.133-.803-.259-.269-.151-.113-.593-.061-.826.072-.319.203-.589.375-.864.183-.294.439-.555.6-.86.141-.269-.051-.389-.313-.299-.616.215-1.206.68-1.607 1.187-.218.276-.326.594-.493.896-.154.282-.451.061-.659-.043-.292-.144-.608-.297-.873-.486-.241-.172-.034-.373.128-.512a7.218 7.218 0 0 1 3.6-1.698l.042-.006c.157-.025.351-.079.495.018.118.079.193.207.293.305.218.22.475.417.742.576.593.351 1.327.476 2.009.488.77.013 1.498-.172 2.2-.478.654-.282 1.298-.652 1.768-1.197.088-.102.474-.607.129-.635-.2-.016-.429.138-.618.195a3.002 3.002 0 0 1-1.974-.123c-.559-.235-1.217-.619-1.437-1.222-.231-.635.2-.926.613-1.3 0 0 .002 0 .003-.002v-.002l.013-.013c.005-.005.007-.005.007-.005.18-.172-.048-.189-.203-.136a2.21 2.21 0 0 0-.444.204l.01-.006c-.288.177-.511.424-.773.634-.575.458-1.324.732-1.996 1.008-.731.297-1.448.626-2.159.967-.672.322-1.35.634-1.989 1.018-.331.199-.659.394-.97.621-.211.151-.518.488-.773.256-.503-.458-.952-1.064-1.322-1.632-.198-.302-.419-.627-.554-.965-.123-.315.161-.497.375-.673a6.91 6.91 0 0 1 1.615-.997c.298-.131.6-.25.919-.319.102-.023.446-.144.518-.028.052.087-.052.255-.077.337a1.033 1.033 0 0 0-.033.494l-.001-.006c.044.266.18.537.4.698.49.361 1.258.291 1.586-.251.328-.54.231-1.202-.277-1.592-.532-.412-1.334-.286-1.948-.158-.177.038-.374.038-.542.112-.152.066-.297.143-.454.202-.341.133-.65.323-.967.502a7.27 7.27 0 0 0-.878.594c-.159.123-.451.476-.603.177-.113-.225-.231-.58-.043-.786zm-.339 2.177.028-.03.01-.01.003-.002c0-.002.002-.002.002-.002.215-.223.331-.08.449.154.151.297.354.562.549.831.202.277.426.537.654.793.197.222.465.425.624.676.141.223-.226.493-.369.619-.262.238-.467.517-.69.788a10.332 10.332 0 0 0-1.145 1.675c-1.121 2.11-1.853 4.461-1.52 6.825-.336.02-.757.008-1.206-.013-.405-1.317-.498-2.738-.434-4.106.036-.752.118-1.525.29-2.259a14.15 14.15 0 0 1 .639-2.082c.292-.721.531-1.45.936-2.121.365-.603.701-1.22 1.181-1.737zm-.978 14.256c-.09.174-.372.343-.539.179-.238-.233-.41-.596-.565-.885a5.037 5.037 0 0 1-.141-.273c.38-.021.731-.085.955-.23l.005.025c.021.087.043.172.066.259.051.181.095.364.164.54.046.112.118.268.056.384zm-2.506-6.886-.002.015-.002.016v.002c0 .003 0 .008-.002.012v.007c0 .002 0 .005-.002.007.002.002 0 .003 0 .005v.005c0 .002 0 .005-.002.007v.003c-.013.208-.028.424-.113.616-.133-.184-.085-.525-.09-.739-.008-.289-.051-.565-.043-.859.016-.566.108-1.118.175-1.681.175-1.437.782-2.832 1.486-4.078.402-.7.839-1.306 1.331-1.862l-.01.012c.084-.094.406-.598.539-.348.052.102.064.22.102.327.046.13.12.266.056.404-.079.172-.242.323-.357.473-.113.146-.223.294-.333.443-.215.291-.426.58-.613.89-.39.652-.703 1.331-1.011 2.023a11.324 11.324 0 0 0-.68 2.101c-.159.726-.374 1.46-.431 2.202zm-.195 8.952c.349-1.006.401-2.223-.249-3.121.203.015.616.062 1.07.079.169.351.346.698.544 1.036.138.233.451.55.211.809-.226.246-.47.463-.675.731-.405.529-.788 1.136-.849 1.814-.021.245-.02.491.016.729.023.159.061.315.116.466-.972-.696-.96-.314-.185-2.543zm7.357 3.215c-.28.171-.603.261-.909.369-.721.253-1.493.333-2.251.355a6.703 6.703 0 0 1-1.298-.087c-.819-.141-1.629-.466-2.073-1.118a2.01 2.01 0 0 1-.136-.23c-.598-1.189.254-2.574 1.23-3.306.297-.222.547.245.721.433.241.261.495.506.76.744.519.468 1.037.962 1.615 1.358l.013.008.005.003.005.003.041.028.013.01.008.005c.146.105.283.24.475.238.026-.186-.265-.369-.387-.461-.18-.136-.369-.261-.537-.412a12.759 12.759 0 0 1-1.091-1.115c-.303-.345-.67-.744-.87-1.159-.08-.166.034-.31.193-.366.151-.054.254.122.315.227.464.8 1.072 1.551 1.712 2.213.67.691 1.401 1.29 2.223 1.793.182.108.537.276.221.468zm2.753-1.778c-.282-.048-.588-.266-.831-.412a6.706 6.706 0 0 1-1.537-1.241 19.37 19.37 0 0 1-1.278-1.579c-.17-.233-.401-.484-.516-.75-.1-.23.175-.266.339-.309l.003-.002c.002-.002.002-.002.002 0l.002-.002.01-.002.016-.005a.146.146 0 0 1 .029-.008c.002-.002.005-.002.008-.003l.005-.002.005-.002c.244-.079.549-.2.76 0 .208.199.4.412.611.607.485.45.991.87 1.534 1.249.485.342 1.044.681 1.625.984l.082.039c.143.072.565.213.433.437-.128.218-.382.42-.565.589-.185.172-.454.458-.737.41zm7.112.942c-.38.419-1.134.346-1.64.335-.706-.016-1.421-.049-2.117-.172a12.92 12.92 0 0 1-2.032-.548c-.075-.026-.282-.077-.292-.181-.008-.115.202-.232.275-.291.238-.199.475-.396.709-.601 0 0 .002 0 .002-.002l.011-.01.018-.016a.772.772 0 0 0 .026-.023c.259-.222.426-.261.775-.19.338.066.685.087 1.027.105.655.034 1.317.034 1.968-.074.07-.013.603-.184.49.041-.108.215-.287.736.041.568.401-.202 1.255.493.737 1.059zm2.83-1.669c-.206.076-.457.095-.675.095-.569 0-1.109-.289-1.67-.386-.005-.002-.008-.002-.013-.002-.005-.002-.01-.002-.015-.002-.007-.002-.013-.002-.016-.002l-.003-.002h-.003c-.003-.002-.005-.002-.008-.002l-.003-.002c-.11-.015-.229-.023-.321-.092.077-.148.239-.215.375-.297.147-.089.293-.184.434-.284.223-.159.405-.374.626-.529.228-.158.451.149.593.294.226.232.433.483.659.713.154.156.333.387.041.496z"/></symbol></defs></svg>