<svg xmlns="http://www.w3.org/2000/svg" width="106" height="60" fill="none"><path fill="#fff" d="M105.664 41.7325c-.295-1.3206-.897-2.5181-1.594-3.6694-.701-1.1543-1.589-2.0593-2.71-2.8074-1.164-.7788-2.3316-1.2128-3.7078-1.4283-2.6543-.4156-5.5236.2401-7.6494 1.9116-.8571.6711-1.7081 1.7577-1.9477 2.8444-.043.1908-.1506.7911.2212.6926.4393-.117.8632-.745 1.2073-1.0343.9615-.7942 2.0245-1.3052 3.2502-1.5361 1.2872-.237 2.6512-.354 3.9507-.1693 1.195.1693 2.2948.8465 3.1427 1.69.8938.8865 1.7448 2.1579 2.0738 3.3892.663 2.4842.522 5.2762-.243 7.7327-.203.6495-.464 1.3606-.872 1.9085-.142.1878-.295.4556-.523.5449-.2638.1077-.445-.1539-.5925-.3263-.4823-.5572-.9585-1.1205-1.4869-1.6407-.3563-.351-1.1121-.7912-.9277-1.3791.215-.6865.4638-1.3206.5437-2.044.0707-.6526.0983-1.296.0399-1.9516-.1167-1.3145-.599-2.4442-1.5913-3.34-.9216-.8311-2.1135-1.2129-3.3024-.7511-1.2073.471-1.8863 1.4683-1.5022 2.7797.3133 1.0743 1.4592 1.5268 2.4914 1.3144.6298-.1293 1.0629-.4956 1.3148-1.0835.1229-.2832.2089-.5788.2243-.8897.0123-.1785-.1291-.6402-.0307-.8188 0 .04.1413-.0031.0798-.0246.4178.0831.7558.7788.9462 1.0989.2826.4833.47 1.059.5192 1.6161.0983 1.1144.0768 2.2718-.4639 3.2754-.2826.5263-.7311.2154-1.1059-.0493-.4455-.3109-.8848-.6187-1.3671-.8712-1.1243-.5848-2.2334-1.1266-3.4345-1.5391-.6329-.2186-1.2688-.4248-1.9139-.5972-.6636-.1785-.5499-.6649-.6206-1.2467-.1659-1.3545-.6635-2.6535-1.3486-3.8233-.7158-1.2251-1.4654-2.401-2.3163-3.5369-.8725-1.1636-1.8064-2.281-2.6481-3.4662-.1721-.2432-1.0599-1.3483-.7803-1.6499.2027-.2217.8909.1323 1.1151.1908 1.2381.3171 2.513.4464 3.7848.5079 2.8416.1385 5.7908-.2893 8.4881-1.2005 4.7708-1.61 9.7626-5.0669 10.1566-10.537.19-2.6104-.338-5.2947-1.865-7.4526-1.524-2.1548-3.8372-3.5431-6.3255-4.2942-1.3272-.4033-2.7004-.6465-4.0766-.8188-1.4132-.1786-2.9154-.2986-4.3378-.237-1.3977.0646-2.8324.1108-4.1933.4432-.6759.1632-1.3425.2401-2.0091.4494-.6359.197-1.3056.3387-1.9262.585-1.3333.5325-2.6266 1.0804-3.8861 1.7761-1.2073.668-2.387 1.3822-3.5237 2.164-1.1581.7973-2.2794 1.6592-3.3424 2.5797-.1843.1569-.9062 1.0127-1.1366.5725-.172-.3263-.0983-.7973-.1106-1.1543-.1045-2.752.7957-5.4486 2.5467-7.585.8295-1.0127 1.7818-2.044 2.8939-2.7489.6144-.3848 1.2073-.8003 1.8524-1.1328.5776-.2986 1.192-.5233 1.791-.7788 2.473-1.0405 5.2778-1.3452 7.9351-1.219.6544.0308 1.3671.2185 1.9723.4648.4976.2032.9339.7634 1.4991.4771.9862-.4986 2.0399-.28 3.069-.5848.172-.0493.4577-.2094.2857-.431-.1382-.1785-.4547-.2155-.6574-.2616-.6052-.1417-1.2135-.2463-1.8309-.3387C87.6834.077 86.2119.0246 84.7219.0031c-2.7894-.0431-5.5512.3632-8.1501 1.416-2.556 1.0343-4.946 2.4103-6.7462 4.5559-.8663 1.0374-1.5176 2.1979-2.0122 3.4508-.4854 1.2282-.6574 2.5765-.7988 3.8755-.0737.6803-.0952 1.3452-.0491 2.0286.0307.4741.2273 1.1144-.0492 1.5453-.3747.5849-.9431 1.0774-1.41 1.5884-.4055.4433-.7097.9728-1.0752 1.453-.8664 1.1359-1.6528 2.358-2.2826 3.6416-.6359 1.296-1.0967 2.6196-1.5544 3.9864-.9247 2.752-1.1029 5.6425-.9862 8.5238.0584 1.4068.3073 2.8013.6544 4.1619.3348 1.3113.7465 2.6442 1.3056 3.8786-2.2088-.1293-4.4545-.2586-5.161.2278.0461-.0308 4.2885 5.5902 2.3132 9.3488-2.1873-1.9732-8.5771-7.5911-5.6372-9.7643 2.2733-1.6777 5.1211-4.8668 3.88-7.9759-1.2718-3.1953-5.7109-2.3949-7.6494-.4064-3.7878 3.8571 1.149 7.9698-2.175 10.8203-.4024.3478-.7588.711-1.0691 1.0866.1506-.4864.252-.9881.2919-1.5145.1106-1.4314.0246-2.8105-.2888-4.2111-.2949-1.3206-.897-2.5181-1.5913-3.6694-.7004-1.1543-1.5913-2.0593-2.7126-2.8074-1.1643-.7788-2.3317-1.2128-3.708-1.4283-2.6542-.4156-5.5235.2401-7.6463 1.9116-.8571.6711-1.7111 1.7577-1.9507 2.8444-.0431.1908-.1506.7911.2242.6926.4424-.117.8633-.745 1.2073-1.0343.9616-.7942 2.0245-1.3052 3.2503-1.5361 1.2871-.237 2.6542-.354 3.9537-.1693 1.1919.1693 2.2917.8465 3.1427 1.69.8939.8865 1.7449 2.1579 2.0736 3.3892.6636 2.4842.5192 5.2762-.2427 7.7327-.2027.6495-.4639 1.3606-.8755 1.9085-.1413.1878-.2949.4556-.5223.5449-.2642.1077-.4423-.1539-.5929-.3263-.4854-.5572-.9584-1.1205-1.4838-1.6408-.3563-.3509-1.112-.7911-.9308-1.379.215-.6865.4639-1.3206.5438-2.044.0737-.6526.0983-1.296.0399-1.9517-.1168-1.3144-.5991-2.4441-1.5944-3.3399-.9185-.8312-2.1136-1.2129-3.2994-.7511-1.2104.471-1.8862 1.4683-1.5053 2.7797.3164 1.0743 1.4592 1.5268 2.4945 1.3144.6298-.1293 1.0629-.4956 1.3149-1.0835.1228-.2832.2058-.5788.2242-.8897.0092-.1785-.129-.6403-.0338-.8188 0 .04.1444-.0031.0799-.0246.4178.0831.7588.7788.9462 1.0989.2857.4833.47 1.0559.5222 1.6161.0953 1.1144.0738 2.2718-.4669 3.2753-.2826.5264-.7312.2155-1.1029-.0492-.4454-.3109-.8847-.6188-1.3701-.8712-1.1244-.5848-2.2334-1.1266-3.4346-1.5391-.6359-.2186-1.2687-.4248-1.9169-.5972-.6636-.1755-.5468-.6649-.6175-1.2467-.169-1.3545-.6636-2.6535-1.3486-3.8263-.7158-1.2252-1.4654-2.4011-2.3194-3.537-.8694-1.1636-1.8033-2.281-2.6481-3.4662-.169-.2432-1.0568-1.3483-.7772-1.6499.2027-.2217.8908.1323 1.1151.1908 1.238.3171 2.5099.4464 3.7817.5079 2.8416.1386 5.7908-.2893 8.4881-1.2005 4.7739-1.61 9.7629-5.0669 10.1592-10.537.1874-2.6104-.341-5.2947-1.8678-7.4526-1.5207-2.1548-3.837-3.543-6.3253-4.2942-1.3302-.4032-2.7004-.6464-4.0766-.8188-1.4132-.1786-2.9154-.2986-4.3378-.237-1.3978.0646-2.8324.1108-4.1933.4432-.6759.1632-1.3425.2401-2.0091.4495-.639.197-1.3057.3386-1.9262.5848-1.3333.5326-2.6266 1.0805-3.8861 1.7762-1.2074.668-2.387 1.3822-3.5237 2.1641-1.1581.7972-2.2794 1.6592-3.3424 2.5796-.1843.157-.9032 1.0127-1.1366.5725-.172-.3263-.0953-.7973-.1106-1.1543a11.2977 11.2977 0 0 1 2.5467-7.585c.8295-1.0127 1.7818-2.044 2.8969-2.7489.6114-.3848 1.2074-.8003 1.8525-1.1328.5806-.2986 1.1919-.5233 1.7941-.7788 2.476-1.025 5.2808-1.3298 7.9412-1.2036.6513.0308 1.364.2185 1.9692.4648.4977.2032.9339.7634 1.4991.4771.9892-.4986 2.0399-.28 3.069-.5848.1721-.0493.4578-.2094.2857-.431-.1382-.1785-.4546-.2155-.6543-.2616-.6083-.1417-1.2166-.2463-1.831-.3387C28.1011.077 26.6295.0246 25.1427.0031c-2.7925-.0431-5.5543.3632-8.1502 1.416-2.559 1.0343-4.946 2.4103-6.7462 4.5559-.8694 1.0374-1.5176 2.1979-2.0152 3.4508-.4854 1.2282-.6575 2.5765-.7957 3.8755-.0707.6803-.0952 1.3452-.0491 2.0286.0307.4741.2303 1.1144-.0492 1.5453-.3717.5849-.9462 1.0774-1.41 1.5884-.4056.4433-.7066.9728-1.0722 1.453-.8694 1.1359-1.6528 2.358-2.2856 3.6416-.636 1.296-1.0937 2.6196-1.5514 3.9864-.9247 2.752-1.1029 5.6425-.9861 8.5238.0583 1.4068.3072 2.8013.6574 4.1619.341 1.3359.7619 2.6996 1.3394 3.9525.5898 1.2837 1.155 2.5488 1.8709 3.7709.258.4371.8417 1.0312.3932 1.5176-.424.4618-.8817.8681-1.2657 1.3699-.7588.9912-1.4776 2.1301-1.5913 3.4015-.1106 1.2405.1167 2.5119.9708 3.4569 1.8923 2.0902 4.8845 2.4195 7.551 2.2687 1.3302-.0739 2.6881-.2309 3.9661-.6187.6574-.2001 1.3332-.4033 1.9661-.6649.5468-.2278 1.1581-.665 1.7603-.4279 2.5129 1.0004 5.3945 1.3606 8.0794 1.376 2.7188.0154 5.5819-.4094 8.1625-1.2806 1.3517-.4525 2.6603-1.0251 3.8677-1.7946.6113-.391 1.4315-.9943 1.9845-1.4622l2.0429-.0462c-.1935-.6187.2243-1.8624.6021-2.2502.7496-.7635 1.5053-1.5761 2.1535-2.4504-1.5513 5.5502 3.6681 11.6206 10.2822 8.4376 1.1796-.5756 2.6481-1.5422 3.5666-2.4749.8325.6865 3.7479 2.084 5.5174 2.8074l.0031.0031c.2365.1108.4762.2124.725.2986 1.5391.551 3.2809.6403 4.903.5479 1.3302-.0739 2.688-.2309 3.966-.6187.6574-.2001 1.3302-.4033 1.9661-.6649.5468-.2278 1.1581-.665 1.7633-.4279 2.5099 1.0004 5.3946 1.3606 8.0764 1.376 2.7188.0154 5.585-.4094 8.1655-1.2806 1.3517-.4525 2.6604-1.0251 3.8647-1.7946.6113-.391 1.4316-.9943 1.9876-1.4622l2.0395-.0462c-.19-.6187.222-1.8624.606-2.2502 1.864-1.9024 3.769-4.0757 3.981-6.8646.107-1.4222.021-2.8013-.292-4.2019Zm-79.3877 9.2626c.3041-.3663.5529-.7911.7833-1.2067.4946-.8866.9063-1.8624 1.1398-2.8536 0-.0062.003-.0092.003-.0185v-.003s.0031-.0124.0062-.0308a.867.867 0 0 1 .0092-.0431v-.0031c.0031-.0092.0061-.0216.0092-.0308v-.0031c.1106-.4771.2458-.7788.8141-.5633.4915.1847 1.0107.2955 1.5207.4217 1.0383.2617 2.1258.6926 3.0751 1.1821.5314.2709 1.0353.591 1.5329.9266.3287.2216.7066.5048.3656.9019-.682.7788-1.5483 1.2744-2.4668 1.73-1.0046.4956-2.1382.6526-3.2472.6865-.5898.0154-1.1827-.0431-1.7726-.0647-.556-.0215-1.1151-.04-1.6589-.1724-.5714-.1477-.4178-.4894-.1136-.8557Zm-1.6528-3.3554c-.0369.982-.2642 1.9701-.6728 2.8659-.2335.5141-.4884.5849-1.0045.3386-.4639-.2185-.9401-.4032-1.3978-.6372-2.0214-1.0312-3.9077-2.2379-5.5021-3.8694-.6819-.6988.4363-.7111.9247-.8003 1.1244-.2124 2.2518-.1909 3.3885-.234.0123 0 .0276-.0031.0399-.0031.0154 0 .0338 0 .0523-.0031.0215 0 .043-.003.0645-.003.0123-.0031.0245-.0031.0368-.0031h.0093c.0153 0 .0307-.0031.0399-.0031.0215-.0031.0307-.0031.0307-.0031.5806-.0246 1.1551-.0708 1.7388-.0615.5714.0061 1.2196-.0308 1.7787.1016.6881.1754.4946 1.7884.4731 2.3148Zm-2.559-7.9112c.7403 1.1482 1.5514 2.3241 1.9599 3.6416.2366.7727-.7434.4987-1.2165.4956-.7035-.0061-1.407.0216-2.1105.0647-1.3578.0862-2.7249.197-4.0704.4125a23.8082 23.8082 0 0 0-1.0599.197c-.258.0554-.5192.2093-.7864.1108-.3779-.1385-.6605-.8989-.8295-1.2282-.6113-1.1944-1.0322-2.4781-1.3609-3.771-.1843-.7203-.2488-1.4898-.3564-2.2286-.1013-.705-.0891-1.4222-.0307-2.1333.1997-2.5488.5315-5.2916 2.0736-7.4156.0062-.0093.0123-.0154.0185-.0246.0246-.037.0368-.0493.0368-.0493v-.0031c.4486-.5849.9647-.0431 1.4439.274.5376.3571 1.0752.7449 1.6528 1.0343.2457.1231.513.2617.5376.5695.0245.3017-.043.6126-.043.9142a8.1196 8.1196 0 0 0 .2611 1.9609c.3348 1.2867 1.0353 2.4534 1.6712 3.6078.6789 1.2344 1.45 2.3949 2.2088 3.5708Zm-11.084-3.6601c.1383 2.8167 1.106 5.4024 2.2058 7.9666.2273.5295.5222.9728-.1905 1.179-.3779.1109-1.1029.5664-1.45.2463-.3779-.3448-.5898-.9851-.7864-1.4406-.2489-.5788-.4793-1.1667-.6114-1.7824-.5714-2.6689-.7864-5.4917-.2795-8.1852.4577-2.4349 1.5913-5.0114 3.2655-6.8615.0062-.0062.0185-.0154.0308-.0308.0184-.0215.0368-.04.0368-.04.1475-.1508.5714-.5449.6574-.2032.0646.2648-.215.6065-.3471.8065-.5591.8466-.9984 1.6777-1.3824 2.6197-.7281 1.7792-1.2442 3.7863-1.149 5.7256Zm-2.1104-19.03c.4147-.4525.9246-.8466 1.3762-1.2621.9923-.9112 2.0859-1.7547 3.1857-2.5335.5837-.4125 1.192-.7849 1.7849-1.1851.5622-.3786 1.1643-.6465 1.7572-.9697 2.4884-1.3637 5.204-2.3395 8.0058-2.792 1.3762-.2216 2.7218-.357 4.1226-.3386 1.2719.0154 2.4915.1847 3.7418.3817 2.6297.4125 5.33 1.5946 7.2531 3.4662.9492.9204 1.7357 2.0347 2.2457 3.2537.5099 1.2221.6697 2.632.6482 3.9495-.04 2.4965-.9647 4.8514-2.6328 6.7076-1.8186 2.0163-4.5067 3.3276-7.1087 3.9772-2.7648.6895-5.6157.8803-8.4481.5941-.6974-.0708-1.3609-.2001-2.0491-.3325-.4731-.0893-1.0844-.2493-1.5053-.4864-.5038-.2832-.212-1.1112-.1136-1.5483.1382-.5972.3809-1.1052.7034-1.6192.3441-.551.8234-1.0405 1.1244-1.6131.2642-.5048-.0983-.7295-.5898-.5602-1.1551.4033-2.261 1.2744-3.0137 2.2256-.4086.5172-.6113 1.1143-.9247 1.6808-.2887.5294-.8448.1139-1.2349-.0801-.5438-.2709-1.1367-.5572-1.6374-.9112-.4516-.3232-.0646-.6987.2396-.9604a13.6187 13.6187 0 0 1 6.8291-3.1953c.295-.0461.6575-.1477.9309.0339.2212.1478.3625.3879.5499.5726.4116.4125.8909.7819 1.3916 1.0804 1.1152.6588 2.4914.8928 3.7663.9143 1.4439.0246 2.8079-.3232 4.1289-.8958 1.2257-.5294 2.4299-1.2221 3.3116-2.2441.1659-.1908.8909-1.1389.2427-1.1913-.3778-.0307-.8079.2586-1.1612.3664-1.1981.357-2.556.2493-3.7018-.2309-1.0476-.4402-2.2795-1.1605-2.6942-2.2903-.4301-1.1913.3748-1.7361 1.1489-2.438 0 0 .0031-.0031.0062-.0031v-.003h.003c.0062-.0062.0093-.0124.0154-.0185.3748-.3386-.0645-.3725-.3625-.2709a4.0365 4.0365 0 0 0-.811.3725c-.5438.3324-.9616.7942-1.4531 1.1882-1.0783.8588-2.4822 1.3729-3.7417 1.8901-1.3702.5571-2.7157 1.1728-4.049 1.8131-1.2595.6033-2.5344 1.1882-3.7295 1.9085-.6174.3725-1.2319.7388-1.8186 1.1636-.3932.2832-.9708.9143-1.4469.4802-.9462-.8588-1.7849-1.9947-2.4823-3.0598-.3717-.5664-.7864-1.1759-1.0352-1.81-.2335-.5911.298-.9327.7004-1.2621.9216-.7573 1.9384-1.3914 3.029-1.8685.5622-.2463 1.1244-.468 1.7265-.5972.1905-.0431.8356-.2709.9708-.0524.0983.1632-.0983.4772-.1444.6311-.0891.2955-.1137.6126-.0645.9142.0829.4987.341 1.0066.7496 1.3083.9185.6772 2.3593.5449 2.9737-.471.6144-1.0127.4332-2.2533-.5192-2.9859-1.0015-.7727-2.5037-.5356-3.6526-.2955-.3349.0708-.7035.0708-1.0169.2093-.2857.1231-.5591.2678-.8479.3786-.639.2494-1.2196.6064-1.8125.942-.5867.3355-1.1151.6988-1.6466 1.1143-.298.2309-.8448.8927-1.1305.3325-.215-.4217-.4393-1.0867-.083-1.4745ZM1.703 34.9387c0 .0092-.0031.0184-.0031.0246 0 .0092-.003.0185-.003.0277v.0031c0 .0061 0 .0123-.0031.0185v.0153c0 .0062-.0031.0124-.0031.0154v.0093c0 .0061-.0031.0092-.0031.0154v.003c-.0276.391-.0492.8004-.212 1.1606-.2519-.3448-.1566-.9851-.169-1.3853-.0153-.5418-.0982-1.0589-.0798-1.6099.0307-1.062.2058-2.0963.3318-3.1522.3287-2.6935 1.4653-5.3101 2.7863-7.6465.6974-1.2344 1.5391-2.4041 2.4792-3.4692.1536-.1755.7618-1.1205 1.0076-.6526.0983.1908.1198.4125.1905.6126.089.2431.2242.4986.1075.7572-.1505.3232-.4577.6064-.6697.8866-.209.2739-.4178.551-.6236.8311-.4025.5449-.7988 1.0866-1.149 1.6684-.7311 1.2221-1.3179 2.4965-1.8954 3.7925-.5622 1.2652-.9677 2.5919-1.275 3.9402-.3072 1.3668-.7065 2.7428-.814 4.1342Zm2.6235 11.5867c-.3195-.588-.6114-1.1944-.8264-1.8285-.894-2.6104-1.106-5.4671-.9769-8.2068.0676-1.4098.2243-2.8597.5437-4.2357.3073-1.3144.6913-2.6566 1.1981-3.9033.55-1.3514.9954-2.7181 1.7542-3.9771.685-1.1267 1.3117-2.2841 2.2119-3.2569.0215-.0246.043-.0431.0645-.0646.0153-.0154.0153-.0185.0153-.0185.3994-.4156.6175-.1508.8418.2894.2826.5571.6635 1.0527 1.0291 1.5576.3779.5202.7987 1.0066 1.2258 1.4868.3686.4156.8755.7973 1.1704 1.2683.2642.4186-.4239.9234-.6881 1.1605-.4916.4463-.8756.9696-1.2934 1.4776-.8048.985-1.5452 2.0162-2.1473 3.1398-2.4024 4.519-3.8493 9.632-2.4577 14.702.0922.3386.1782.6834.3072 1.0127.083.2094.2182.4987.1014.7204-.169.3263-.6973.6433-1.0107.3355-.4485-.4371-.768-1.1174-1.063-1.6592Zm10.8044 11.2265c-.5253.3202-1.1305.4895-1.7081.6927-1.3486.474-2.7986.6249-4.221.6649-2.1043.0615-5.029-.3725-6.3192-2.2595-1.582-2.3149.1014-5.1685 2.0522-6.6307.553-.4155 1.023.4587 1.3486.8127.4516.4895.9308.9481 1.4254 1.3945.9739.8773 1.9446 1.8039 3.0321 2.5457a.276.276 0 0 0 .0307.0185c.0215.0154.0983.0647.1106.0739.0031.0031.0031.0031.0062.0031l.0153.0092c.2735.197.5315.4494.8909.4464.0492-.3479-.4976-.6927-.728-.8651-.338-.2555-.6913-.4894-1.0046-.7726-.7342-.6588-1.3978-1.3483-2.046-2.0902-.5683-.6464-1.2534-1.3944-1.6312-2.1732-.1506-.311.0675-.5818.3625-.6865.2826-.1016.4761.2278.5898.4248.8694 1.4991 2.0091 2.909 3.2134 4.1495 1.2534 1.296 2.6266 2.4196 4.1656 3.3615.341.2063 1.0077.5203.4148.8804Zm5.161-3.3338c-.5284-.0892-1.1029-.4986-1.5544-.7726-1.066-.6341-2.0491-1.4068-2.8847-2.3272-.8509-.9389-1.6466-1.9363-2.3962-2.9613-.3195-.4371-.7526-.9081-.9677-1.4068-.1843-.431.3287-.4987.639-.5787l.0061-.0031c.0031-.0031.0031-.0031.0031 0l.0031-.0031.0184-.0031c.0092-.003.0185-.0061.0307-.0092.0246-.0092.0431-.0123.0584-.0154.0031-.0031.0092-.0031.0154-.0061.003 0 .0061-.0031.0123-.0031.0061-.0031.0092-.0031.0092-.0031.4577-.1478 1.0291-.3756 1.4254 0 .3902.3725.7496.7726 1.1459 1.139.9093.8434 1.8586 1.6315 2.8785 2.3426 1.0199.711 2.092 1.3513 3.2011 1.9177.2703.1355 1.0629.4002.814.8189-.2426.4094-.7157.788-1.0629 1.1051-.3594.3232-.8663.8588-1.3947.7695Zm13.3327 1.767c-.7127.785-2.1259.6495-3.0751.628-1.3241-.0308-2.6635-.0924-3.9691-.3233-1.2872-.2308-2.5775-.5879-3.8093-1.0281-.1414-.0493-.5315-.1447-.5438-.3386-.0154-.2155.3779-.4341.513-.5449.4486-.3725.8971-.7449 1.3302-1.1266l.0031-.0031.0092-.0093.0031-.003s.0215-.0154.0399-.037c.0185-.0154.0369-.0338.0553-.0492l.0031-.0031c.4762-.4063.7926-.4771 1.4439-.3509.6328.1231 1.281.1631 1.9261.197 1.2288.0646 2.4669.0646 3.6896-.1385.1321-.0247 1.1305-.3448.9185.0769-.1997.4033-.5376 1.3791.0768 1.0651.7588-.3756 2.3563.9266 1.3855 1.9886Zm5.3054-3.1306c-.3871.1416-.8571.1785-1.2657.1785-1.0752 0-2.0982-.551-3.155-.7265-.0092 0-.0184-.0031-.0245-.0031h-.0031c-.0123-.003-.0215-.003-.0307-.003h-.0031l-.0031-.0031h-.0061c-.0031 0-.0092-.0031-.0154-.0031-.2089-.0308-.4331-.0462-.6113-.1755.1474-.277.4485-.4032.7035-.5571a12.697 12.697 0 0 0 .811-.5326c.4178-.2986.7588-.7018 1.1735-.9912.427-.2955.8448.2801 1.1121.551.4239.4341.811.905 1.235 1.336.298.2924.6328.7265.0829.9297Zm10.9918-15.4377c.0031-.0092.0031-.0154.0061-.0277v-.0031c.0031-.0092.0031-.0185.0062-.0308.0031-.0184.0092-.04.0123-.0585v-.003l.0061-.0247c.0031-.003.0031-.0061.0031-.0092 1.1889-4.9345 9.1025 1.7608 1.2134 6.4152-.9154-1.8993-1.6834-4.1249-1.2472-6.2582Zm6.2178 18.9315c-.0031.0031-.0061.0031-.0092.0062-.0184.0123-.0338.0215-.0461.0308-.0061.003-.0092.0061-.0153.0092-.0308.0215-.04.0246-.04.0246-6.8814 4.2727-12.4203-5.6733-6.5834-10.5277 1.8801 3.6631 4.6265 6.9631 7.6678 9.7027-.3256.2494-.6482.5018-.9738.7542Zm29.722-5.5532c.3042-.3663.5499-.7911.7834-1.2067.4946-.8866.9063-1.8624 1.1367-2.8536 0-.0031 0-.0062.0031-.0092.003-.0031.003-.0123.003-.0247.0062-.0123.0062-.0277.0123-.04 0-.0092.0031-.0154.0031-.0246.0031-.0154.0061-.0308.0123-.0431 0-.0031.003-.0062.003-.0062.1076-.4709.2489-.7695.8111-.5541.4915.1847 1.0107.2956 1.5176.4218 1.0383.2616 2.1227.6926 3.0751 1.182.5314.2709 1.0352.5911 1.5298.9266.3288.2216.7066.5049.3625.902-.682.7788-1.5452 1.2744-2.4637 1.73-1.0046.4956-2.1382.6526-3.2503.6864-.5898.0154-1.1796-.0431-1.7725-.0646-.553-.0216-1.1152-.04-1.6559-.1724-.5683-.1416-.4147-.4833-.1106-.8496Zm-1.6527-3.3554c-.0369.982-.2673 1.9701-.6728 2.8659-.2365.5141-.4915.5849-1.0076.3386-.4639-.2185-.937-.4032-1.3978-.6372-2.0183-1.0312-3.9076-2.2379-5.499-3.8694-.682-.6988.4363-.7111.9217-.8003 1.1274-.2124 2.2518-.1909 3.3915-.234.0123 0 .0276-.0031.0399-.0031.0154 0 .0338 0 .0522-.0031.0216 0 .0431-.003.0646-.003.0122-.0031.0215-.0031.0368-.0031h.0092c.0154 0 .0308-.0031.04-.0031.0215-.0031.0307-.0031.0307-.0031.5806-.0246 1.1551-.0708 1.7388-.0615.5714.0061 1.2196-.0308 1.7787.1046.6851.1724.4915 1.7854.4731 2.3118Zm-2.559-7.9112c.7403 1.1482 1.5514 2.3241 1.9569 3.6416.2396.7727-.7435.4987-1.2166.4956-.7035-.0061-1.4039.0216-2.1074.0647-1.3578.0862-2.7249.197-4.0704.4125a23.8082 23.8082 0 0 0-1.0599.197c-.2581.0554-.5161.2093-.7895.1108-.3748-.1385-.6574-.8989-.8264-1.2282-.6113-1.1944-1.0322-2.4781-1.3609-3.771-.1843-.7203-.2519-1.4898-.3564-2.2286-.1014-.705-.0891-1.4222-.0338-2.1333.1997-2.5304.5254-5.2485 2.0399-7.3694.0123-.0154.0215-.0308.0368-.0493l.0031-.0031.04-.0554c.4546-.6126.9769-.0646 1.4592.2586.5407.3571 1.0783.7449 1.6558 1.0343.2458.1231.513.2617.5376.5695.0215.3017-.0461.6126-.043.9142a8.2678 8.2678 0 0 0 .2581 1.9609c.3379 1.2867 1.0383 2.4534 1.6711 3.6078.6759 1.2344 1.4439 2.3949 2.2058 3.5708Zm-11.084-3.6601c.1383 2.8167 1.106 5.4024 2.2058 7.9666.2273.5295.5222.9728-.1905 1.179-.3779.1109-1.1029.5664-1.45.2463-.3748-.3448-.5898-.9851-.7865-1.4406-.2457-.5788-.4761-1.1667-.6113-1.7824-.5683-2.6689-.7834-5.4917-.2795-8.1852.4577-2.4349 1.5913-5.0084 3.2625-6.8553a.8024.8024 0 0 1 .0092-.0093l.0092-.0092c.0092-.0092.0215-.0246.0307-.0339v-.0031l.0031-.003.0092-.0093a.0423.0423 0 0 0 .0062-.0092s.003 0 .003-.0031l.0031-.0031c.1505-.1508.5745-.5448.6574-.2031.0645.2647-.215.6064-.3441.8065-.5621.8465-.9984 1.6777-1.3824 2.6196-.7342 1.7854-1.2534 3.7925-1.1551 5.7318Zm-2.1135-19.03c.4147-.4525.9216-.8466 1.3762-1.2621.9923-.9112 2.086-1.7547 3.1858-2.5335.5836-.4125 1.1919-.7849 1.7817-1.1851.5622-.3786 1.1674-.6465 1.7573-.9697 2.4883-1.3637 5.204-2.3395 8.0057-2.792 1.3763-.2216 2.7218-.357 4.1227-.3386 1.2718.0154 2.4914.1847 3.7417.3817 2.6266.4125 5.33 1.5946 7.2562 3.4662.9493.9204 1.7353 2.0347 2.2453 3.2537.513 1.2221.67 2.632.649 3.9495-.04 2.4965-.965 4.8514-2.6332 6.7076-1.8156 2.0163-4.5067 3.3276-7.1056 3.9772-2.7648.6895-5.6188.8803-8.4481.5941-.6974-.0708-1.361-.2001-2.0522-.3325-.47-.0893-1.0813-.2493-1.5053-.4864-.5038-.2832-.2119-1.1112-.1136-1.5483.1351-.5972.3809-1.1052.7035-1.6192.344-.551.8233-1.0405 1.1243-1.6131.2642-.5048-.0952-.7295-.5867-.5602-1.1551.4033-2.261 1.2744-3.0137 2.2256-.4086.5172-.6113 1.1143-.9247 1.6808-.2888.5294-.8448.1139-1.2349-.0801-.5469-.2709-1.1398-.5572-1.6374-.9112-.4516-.3232-.0646-.6987.2396-.9604a13.6187 13.6187 0 0 1 6.8291-3.1953c.2949-.0461.6574-.1477.9278.0339.2212.1478.3625.3879.5499.5726.4086.4125.8909.7819 1.3916 1.0804 1.1121.6588 2.4884.8928 3.7663.9143 1.4439.0246 2.8079-.3232 4.1258-.8958 1.2257-.5294 2.4331-1.2221 3.3147-2.2441.1659-.1908.8879-1.1389.2427-1.1913-.3748-.0307-.8048.2586-1.1581.3664-1.1981.357-2.556.2493-3.7018-.2309-1.0476-.4402-2.2826-1.1605-2.6942-2.2903-.4332-1.1913.3748-1.7361 1.1489-2.438 0 0 .0031 0 .0062-.0031v-.003l.0245-.0247c.0092-.0092.0123-.0092.0123-.0092.338-.3232-.0891-.354-.3809-.2555a4.1428 4.1428 0 0 0-.8141.3725c-.5407.3324-.9585.7942-1.45 1.1882-1.0783.8588-2.4822 1.3729-3.7418 1.8901-1.3701.5571-2.7156 1.1728-4.0489 1.8131-1.2596.6033-2.5314 1.1882-3.7295 1.9085-.6205.3725-1.2349.7388-1.8186 1.1636-.3963.2832-.9708.9143-1.45.4802-.9431-.8588-1.7849-1.9947-2.4792-3.0598-.3717-.5664-.7864-1.1759-1.0383-1.81-.2304-.5911.301-.9327.7035-1.2621.9216-.7573 1.9354-1.3914 3.029-1.8685.5591-.2463 1.1244-.468 1.7234-.5972.1905-.0431.8356-.2709.9708-.0524.0983.1632-.0983.4772-.1444.6311a2.0068 2.0068 0 0 0-.0645.9142c.0829.4987.3379 1.0066.7496 1.3083.9185.6772 2.3593.5449 2.9737-.471.6144-1.0127.4332-2.2533-.5192-2.9859-.9984-.7727-2.5006-.5356-3.6526-.2955-.3318.0708-.7004.0708-1.0169.2093-.2857.1231-.556.2678-.8509.3786-.639.2494-1.2196.6064-1.8125.942-.5868.3355-1.1152.6988-1.6466 1.1143-.298.2309-.8449.8927-1.1306.3325-.2119-.4217-.4331-1.0867-.0798-1.4745Zm-.6359 4.0818c.0184-.0185.0368-.0369.0522-.0554l.0184-.0185c.0031-.0031.0062-.0031.0062-.0031 0-.003.003-.003.003-.003.4025-.4187.6206-.1509.8418.2893.2826.5572.6635 1.0528 1.0291 1.5576.3779.5203.7987 1.0066 1.2258 1.4869.3686.4155.8724.7972 1.1704 1.2682.2642.4187-.4239.9235-.6912 1.1605-.4915.4464-.8755.9697-1.2933 1.4776-.8049.9851-1.5484 2.0163-2.1474 3.1399-2.1013 3.9556-3.4745 8.3637-2.8509 12.7965-.6297.0369-1.4192.0154-2.261-.0247-.7588-2.4688-.9339-5.1346-.8141-7.6988.0676-1.4098.2212-2.8597.5438-4.2357.3072-1.3145.6912-2.6566 1.1981-3.9033.5468-1.3514.9953-2.7181 1.7541-3.9772.6851-1.1297 1.3148-2.2871 2.215-3.2568Zm-1.8341 26.7289c-.1689.3263-.6973.6433-1.0107.3355-.4454-.4371-.768-1.1174-1.0598-1.6592-.0922-.1693-.1843-.3386-.2642-.511.7127-.04 1.3701-.1601 1.791-.431l.0092.0462c.0399.1632.0799.3232.1229.4864.0952.3386.1782.6834.3072 1.0127.086.2094.2212.5018.1044.7204Zm-4.6971-12.9104c0 .0092-.0031.0184-.0031.0277 0 .0092-.0031.0184-.0031.0308v.003c0 .0062 0 .0154-.003.0216v.0123c0 .0031 0 .0092-.0031.0123.0031.0031 0 .0062 0 .0092v.0093c0 .0031 0 .0092-.0031.0123v.0062c-.0246.3909-.0522.7942-.2119 1.1543-.2489-.3448-.1598-.985-.169-1.3852-.0154-.5418-.0952-1.059-.0799-1.61.0307-1.062.2028-2.0963.3287-3.1521.3287-2.6936 1.4654-5.3101 2.7864-7.6465a20.696 20.696 0 0 1 2.476-3.4693c.1567-.1754.7619-1.1205 1.0107-.6526.0984.1909.1199.4125.1905.6126.086.2432.2243.4987.1045.7573-.1475.3232-.4547.6064-.6697.8865-.212.274-.4178.551-.6237.8312-.4024.5448-.7987 1.0866-1.1489 1.6684-.7312 1.2221-1.3179 2.4965-1.8955 3.7925-.5652 1.2651-.9677 2.5919-1.2749 3.9402-.298 1.3606-.7004 2.7366-.8079 4.128Zm-.3656 16.7859c.6544-1.887.7527-4.168-.4669-5.8518.3809.0277 1.1551.117 2.006.1477.3164.6588.6482 1.3083 1.0199 1.9425.2581.4371.8448 1.0312.3963 1.5176-.4239.4617-.8817.868-1.2657 1.3698-.7588.9912-1.4776 2.1302-1.5913 3.4015-.0399.4587-.0368.9204.0307 1.3668.043.2986.1137.591.2182.8742-1.8218-1.3052-1.8003-.5879-.3472-4.7683Zm13.7935 6.0273c-.5253.3202-1.1305.4895-1.705.6927-1.3517.474-2.7986.6249-4.221.6649-.7434.0215-1.5913-.0185-2.433-.1632-1.5361-.2647-3.0537-.8742-3.8862-2.0963-.0952-.1416-.1812-.2832-.255-.431-1.1213-2.2287.4762-4.8267 2.3071-6.1997.5561-.4155 1.0261.4587 1.3517.8127.4516.4895.9278.9481 1.4255 1.3945.9738.8773 1.9446 1.8039 3.029 2.5457l.0246.0154c.0061.0031.0061.0031.0092.0062.0031.0031.0062.0031.0092.0061.0154.0093.0645.0431.0768.0524.0092.0061.0154.0123.0246.0184l.0154.0093c.2734.197.5314.4494.8909.4463.0491-.3478-.4977-.6926-.725-.865-.338-.2555-.6913-.4894-1.0077-.7726-.7342-.6588-1.3947-1.3483-2.046-2.0902-.5683-.6464-1.2564-1.3945-1.6312-2.1733-.1505-.3109.0645-.5818.3625-.6864.2826-.1016.4761.2278.5898.4248.8694 1.4991 2.0091 2.909 3.2103 4.1495 1.2565 1.296 2.6266 2.4196 4.1688 3.3615.341.2032 1.0076.5172.4147.8773Zm5.161-3.3338c-.5284-.0892-1.1028-.4986-1.5575-.7726-1.0629-.6341-2.046-1.4068-2.8816-2.3272-.854-.9389-1.6466-1.9363-2.3962-2.9613-.3195-.4371-.7526-.9081-.9677-1.4068-.1874-.431.3287-.4987.6359-.5787l.0062-.0031c.0031-.0031.0031-.0031.0031 0l.003-.0031.0185-.0031c.0092-.003.0184-.0061.0307-.0092.0246-.0092.043-.0123.0553-.0154.0031-.0031.0092-.0031.0153-.0061.0031 0 .0062-.0031.0093-.0031.0061-.0031.0092-.0031.0092-.0031.4577-.1478 1.0291-.3756 1.4254 0 .3902.3725.7496.7726 1.1459 1.139.9093.8434 1.8586 1.6315 2.8754 2.3426a27.8837 27.8837 0 0 0 3.2011 1.9177c.2673.1355 1.0598.4002.811.8189-.2396.4094-.7158.788-1.0598 1.1051-.3472.3232-.851.8588-1.3825.7695Zm13.3358 1.767c-.7127.785-2.1259.6495-3.0751.628-1.3241-.0308-2.6635-.0924-3.9691-.3233-1.2841-.2308-2.5775-.5879-3.8094-1.0281-.1413-.0493-.5284-.1447-.5468-.3386-.0153-.2155.3779-.4341.5161-.5449.4455-.3725.8909-.7419 1.3302-1.1266 0 0 .0031 0 .0031-.0031l.0215-.0185c.0123-.0092.0215-.0185.0338-.0308.0276-.0246.043-.0369.0491-.0431.4854-.4155.7988-.4894 1.4531-.3571.6329.1232 1.2841.1632 1.9262.1971 1.2288.0646 2.4699.0646 3.6895-.1386.1321-.0246 1.1305-.3447.9186.077-.2028.4032-.5376 1.3791.0768 1.0651.7526-.3786 2.3531.9235 1.3824 1.9855Zm5.3054-3.1306c-.3871.1416-.8571.1785-1.2657.1785-1.066 0-2.0798-.5418-3.1304-.7234-.0092-.0031-.0154-.0031-.0246-.0031-.0092-.0031-.0184-.0031-.0276-.0031-.0123-.003-.0246-.003-.0307-.003-.0031-.0031-.0031-.0031-.0062-.0031H94.0241c-.0062-.0031-.0093-.0031-.0154-.0031-.0031-.0031-.0061-.0031-.0061-.0031-.2059-.0277-.4301-.0431-.6022-.1724.1444-.277.4486-.4032.7035-.5571.2765-.1663.5499-.3448.8141-.5326.4178-.2986.7588-.7018 1.1736-.9912.427-.2955.8448.2801 1.112.551.424.4341.8111.905 1.235 1.336.2888.2924.6236.7265.0768.9297Z"/></svg>