<svg aria-hidden="true" style="position: absolute; width: 0; height: 0; overflow: hidden;" version="1.1" xmlns="http://www.w3.org/2000/svg" xmlns:xlink="http://www.w3.org/1999/xlink">
<defs>
<symbol id="phone" viewBox="0 0 32 32">
<path d="M11.317 13.657c1.668 2.931 4.095 5.358 7.026 7.026l1.572-2.201c0.253-0.354 0.626-0.603 1.050-0.7s0.869-0.035 1.25 0.174c2.514 1.374 5.291 2.201 8.148 2.425 0.446 0.035 0.862 0.237 1.165 0.566s0.472 0.759 0.472 1.207v7.932c0 0.44-0.163 0.865-0.458 1.191s-0.701 0.532-1.139 0.577c-0.942 0.098-1.892 0.146-2.848 0.146-15.218 0-27.556-12.338-27.556-27.556 0-0.956 0.048-1.906 0.146-2.848 0.045-0.438 0.251-0.844 0.577-1.138s0.751-0.458 1.192-0.458h7.932c0.447-0 0.878 0.168 1.207 0.472s0.531 0.72 0.566 1.165c0.224 2.857 1.051 5.633 2.425 8.148 0.209 0.381 0.271 0.826 0.174 1.25s-0.346 0.798-0.7 1.050l-2.201 1.572zM6.834 12.489l3.378-2.412c-0.959-2.069-1.615-4.265-1.95-6.521h-4.688c-0.011 0.295-0.016 0.592-0.016 0.889-0.002 13.255 10.743 24 23.998 24 0.297 0 0.594-0.005 0.889-0.018v-4.688c-2.256-0.335-4.452-0.992-6.521-1.95l-2.412 3.378c-0.971-0.377-1.915-0.823-2.823-1.333l-0.103-0.059c-3.487-1.985-6.375-4.872-8.359-8.359l-0.059-0.103c-0.51-0.908-0.956-1.852-1.333-2.823z"></path>
</symbol>
<symbol id="menu" viewBox="0 0 32 32">
<path d="M0 9.333h32v2.667h-32v-2.667z"></path>
<path d="M0 20h32v2.667h-32v-2.667z"></path>
</symbol>
<symbol id="close" viewBox="0 0 32 32">
<path d="M27.312 1.857l-25.456 25.456 2.828 2.828 25.456-25.456-2.828-2.828z"></path>
<path d="M4.688 1.857l25.456 25.456-2.828 2.828-25.456-25.456 2.828-2.828z"></path>
</symbol>
<symbol id="vk" viewBox="0 0 32 32">
<path stroke-linejoin="miter" stroke-linecap="butt" stroke-miterlimit="4" stroke-width="0.7273" d="M28.488 9.703c0.184-0.574 0-0.976-0.86-0.976h-2.865c-0.737 0-1.064 0.364-1.248 0.766 0 0-1.453 3.33-3.52 5.474-0.675 0.632-0.962 0.823-1.33 0.823-0.184 0-0.45-0.191-0.45-0.766v-5.321c0-0.689-0.205-0.976-0.818-0.976h-4.502c-0.45 0-0.737 0.325-0.737 0.612 0 0.651 1.023 0.804 1.146 2.603v3.943c0 0.861-0.164 1.014-0.532 1.014-0.962 0-3.335-3.33-4.727-7.158-0.287-0.708-0.553-1.014-1.289-1.014h-2.865c-0.819 0-0.982 0.364-0.982 0.766 0 0.708 0.962 4.23 4.522 8.88 2.374 3.177 5.709 4.899 8.738 4.899 1.821 0 2.046-0.383 2.046-1.033v-2.412c0-0.766 0.164-0.919 0.757-0.919 0.43 0 1.146 0.191 2.845 1.722 1.944 1.818 2.271 2.641 3.356 2.641h2.865c0.818 0 1.228-0.383 0.982-1.129-0.266-0.746-1.187-1.837-2.415-3.139-0.675-0.746-1.678-1.531-1.965-1.933-0.43-0.517-0.307-0.746 0-1.187 0-0.019 3.499-4.612 3.847-6.182z"></path>
</symbol>
<symbol id="pinterest" viewBox="0 0 32 32">
<path d="M17.694 3.769c-2.954-0.406-5.955 0.27-8.45 1.904s-4.313 4.115-5.121 6.985c-0.808 2.87-0.55 5.936 0.727 8.631s3.484 4.837 6.217 6.031c-0.074-0.948-0.006-1.902 0.201-2.831 0.228-1.036 1.6-6.745 1.6-6.745-0.273-0.612-0.41-1.277-0.4-1.947 0-1.833 1.058-3.201 2.374-3.201 0.236-0.003 0.471 0.044 0.687 0.139s0.41 0.236 0.567 0.413c0.157 0.177 0.275 0.385 0.344 0.611s0.089 0.464 0.059 0.699c0 1.111-0.713 2.793-1.086 4.37-0.074 0.289-0.078 0.592-0.014 0.883s0.197 0.564 0.386 0.795c0.189 0.231 0.43 0.414 0.703 0.535s0.571 0.176 0.869 0.161c2.343 0 3.913-3.001 3.913-6.545 0-2.716-1.799-4.751-5.115-4.751-0.793-0.031-1.585 0.1-2.326 0.384s-1.417 0.716-1.986 1.27-1.020 1.217-1.325 1.95c-0.305 0.733-0.458 1.52-0.449 2.314-0.035 0.881 0.249 1.744 0.8 2.432 0.103 0.077 0.178 0.185 0.214 0.309s0.031 0.255-0.014 0.375c-0.057 0.227-0.2 0.769-0.257 0.968-0.012 0.067-0.039 0.131-0.080 0.186s-0.094 0.099-0.155 0.13c-0.061 0.031-0.129 0.046-0.197 0.046s-0.136-0.017-0.197-0.048c-1.709-0.684-2.514-2.564-2.514-4.711 0-3.515 2.943-7.722 8.832-7.722 4.686 0 7.802 3.428 7.802 7.095 0 4.826-2.688 8.454-6.659 8.454-0.594 0.019-1.182-0.112-1.712-0.381s-0.983-0.667-1.318-1.157c0 0-0.714 2.859-0.854 3.4-0.287 0.934-0.711 1.821-1.258 2.631 1.14 0.346 2.323 0.519 3.514 0.514 1.622 0.001 3.228-0.317 4.726-0.938s2.86-1.53 4.006-2.677c1.146-1.147 2.055-2.509 2.674-4.008s0.937-3.105 0.934-4.727c-0.002-2.981-1.082-5.862-3.041-8.109s-4.666-3.71-7.619-4.117l-0.003-0.001z"></path>
</symbol>
<symbol id="tg" viewBox="0 0 32 32">
<path d="M3.4 14.034c7.999-3.823 13.333-6.343 16.002-7.561 7.62-3.477 9.203-4.081 10.236-4.101 0.227-0.004 0.734 0.057 1.063 0.35 0.277 0.247 0.354 0.581 0.391 0.815s0.082 0.768 0.046 1.185c-0.413 4.759-2.2 16.31-3.109 21.64-0.385 2.256-1.142 3.012-1.875 3.086-1.593 0.161-2.803-1.155-4.347-2.265-2.415-1.737-3.779-2.818-6.124-4.512-2.709-1.958-0.953-3.035 0.591-4.794 0.404-0.46 7.425-7.466 7.561-8.101 0.017-0.079 0.033-0.376-0.128-0.532s-0.397-0.103-0.568-0.060c-0.242 0.060-4.1 2.858-11.574 8.392-1.095 0.825-2.087 1.227-2.976 1.206-0.98-0.023-2.864-0.608-4.265-1.107-1.718-0.613-3.084-0.937-2.965-1.977 0.062-0.542 0.742-1.096 2.041-1.663z"></path>
</symbol>
<symbol id="logo" viewBox="0 0 57 32">
<path fill="#fff" d="M56.354 22.257c-0.157-0.704-0.478-1.343-0.85-1.957-0.374-0.616-0.847-1.098-1.445-1.497-0.621-0.415-1.244-0.647-1.977-0.762-1.416-0.222-2.946 0.128-4.080 1.020-0.457 0.358-0.911 0.937-1.039 1.517-0.023 0.102-0.080 0.422 0.118 0.369 0.234-0.062 0.46-0.397 0.644-0.552 0.513-0.424 1.080-0.696 1.733-0.819 0.687-0.126 1.414-0.189 2.107-0.090 0.637 0.090 1.224 0.451 1.676 0.901 0.477 0.473 0.931 1.151 1.106 1.808 0.354 1.325 0.278 2.814-0.13 4.124-0.108 0.346-0.247 0.726-0.465 1.018-0.076 0.1-0.157 0.243-0.279 0.291-0.141 0.057-0.237-0.082-0.316-0.174-0.257-0.297-0.511-0.598-0.793-0.875-0.19-0.187-0.593-0.422-0.495-0.736 0.115-0.366 0.247-0.704 0.29-1.090 0.038-0.348 0.052-0.691 0.021-1.041-0.062-0.701-0.319-1.304-0.849-1.781-0.492-0.443-1.127-0.647-1.761-0.401-0.644 0.251-1.006 0.783-0.801 1.482 0.167 0.573 0.778 0.814 1.329 0.701 0.336-0.069 0.567-0.264 0.701-0.578 0.066-0.151 0.111-0.309 0.12-0.474 0.007-0.095-0.069-0.341-0.016-0.437 0 0.021 0.075-0.002 0.043-0.013 0.223 0.044 0.403 0.415 0.505 0.586 0.151 0.258 0.251 0.565 0.277 0.862 0.052 0.594 0.041 1.212-0.247 1.747-0.151 0.281-0.39 0.115-0.59-0.026-0.238-0.166-0.472-0.33-0.729-0.465-0.6-0.312-1.191-0.601-1.832-0.821-0.338-0.117-0.677-0.227-1.021-0.319-0.354-0.095-0.293-0.355-0.331-0.665-0.088-0.722-0.354-1.415-0.719-2.039-0.382-0.653-0.782-1.281-1.235-1.886-0.465-0.621-0.963-1.217-1.412-1.849-0.092-0.13-0.565-0.719-0.416-0.88 0.108-0.118 0.475 0.071 0.595 0.102 0.66 0.169 1.34 0.238 2.019 0.271 1.516 0.074 3.088-0.154 4.527-0.64 2.544-0.859 5.207-2.702 5.417-5.62 0.101-1.392-0.18-2.824-0.995-3.975-0.813-1.149-2.047-1.89-3.374-2.29-0.708-0.215-1.44-0.345-2.174-0.437-0.754-0.095-1.555-0.159-2.313-0.126-0.745 0.034-1.511 0.059-2.236 0.236-0.36 0.087-0.716 0.128-1.072 0.24-0.339 0.105-0.696 0.181-1.027 0.312-0.711 0.284-1.401 0.576-2.073 0.947-0.644 0.356-1.273 0.737-1.879 1.154-0.618 0.425-1.216 0.885-1.783 1.376-0.098 0.084-0.483 0.54-0.606 0.305-0.092-0.174-0.052-0.425-0.059-0.616-0.056-1.468 0.424-2.906 1.358-4.045 0.442-0.54 0.95-1.090 1.543-1.466 0.328-0.205 0.644-0.427 0.988-0.604 0.308-0.159 0.636-0.279 0.955-0.415 1.319-0.555 2.815-0.717 4.232-0.65 0.349 0.016 0.729 0.117 1.052 0.248 0.265 0.108 0.498 0.407 0.8 0.254 0.526-0.266 1.088-0.149 1.637-0.312 0.092-0.026 0.244-0.112 0.152-0.23-0.074-0.095-0.242-0.115-0.351-0.14-0.323-0.076-0.647-0.131-0.976-0.181-0.786-0.115-1.571-0.143-2.366-0.154-1.488-0.023-2.961 0.194-4.347 0.755-1.363 0.552-2.638 1.286-3.598 2.43-0.462 0.553-0.809 1.172-1.073 1.84-0.259 0.655-0.351 1.374-0.426 2.067-0.039 0.363-0.051 0.717-0.026 1.082 0.016 0.253 0.121 0.594-0.026 0.824-0.2 0.312-0.503 0.575-0.752 0.847-0.216 0.236-0.379 0.519-0.573 0.775-0.462 0.606-0.882 1.258-1.217 1.942-0.339 0.691-0.585 1.397-0.829 2.126-0.493 1.468-0.588 3.009-0.526 4.546 0.031 0.75 0.164 1.494 0.349 2.22 0.179 0.699 0.398 1.41 0.696 2.069-1.178-0.069-2.376-0.138-2.753 0.122 0.025-0.016 2.287 2.981 1.234 4.986-1.167-1.052-4.574-4.049-3.006-5.208 1.212-0.895 2.731-2.596 2.069-4.254-0.678-1.704-3.046-1.277-4.080-0.217-2.020 2.057 0.613 4.251-1.16 5.771-0.215 0.186-0.405 0.379-0.57 0.58 0.080-0.259 0.134-0.527 0.156-0.808 0.059-0.763 0.013-1.499-0.154-2.246-0.157-0.704-0.478-1.343-0.849-1.957-0.374-0.616-0.849-1.098-1.447-1.497-0.621-0.415-1.244-0.647-1.978-0.762-1.416-0.222-2.946 0.128-4.078 1.020-0.457 0.358-0.913 0.937-1.040 1.517-0.023 0.102-0.080 0.422 0.12 0.369 0.236-0.062 0.46-0.397 0.644-0.552 0.513-0.424 1.080-0.696 1.733-0.819 0.686-0.126 1.416-0.189 2.109-0.090 0.636 0.090 1.222 0.451 1.676 0.901 0.477 0.473 0.931 1.151 1.106 1.808 0.354 1.325 0.277 2.814-0.129 4.124-0.108 0.346-0.247 0.726-0.467 1.018-0.075 0.1-0.157 0.243-0.279 0.291-0.141 0.057-0.236-0.082-0.316-0.174-0.259-0.297-0.511-0.598-0.791-0.875-0.19-0.187-0.593-0.422-0.496-0.735 0.115-0.366 0.247-0.704 0.29-1.090 0.039-0.348 0.052-0.691 0.021-1.041-0.062-0.701-0.32-1.304-0.85-1.781-0.49-0.443-1.127-0.647-1.76-0.401-0.646 0.251-1.006 0.783-0.803 1.482 0.169 0.573 0.778 0.814 1.33 0.701 0.336-0.069 0.567-0.264 0.701-0.578 0.066-0.151 0.11-0.309 0.12-0.474 0.005-0.095-0.069-0.341-0.018-0.437 0 0.021 0.077-0.002 0.043-0.013 0.223 0.044 0.405 0.415 0.505 0.586 0.152 0.258 0.251 0.563 0.279 0.862 0.051 0.594 0.039 1.212-0.249 1.747-0.151 0.281-0.39 0.115-0.588-0.026-0.238-0.166-0.472-0.33-0.731-0.465-0.6-0.312-1.191-0.601-1.832-0.821-0.339-0.117-0.677-0.227-1.022-0.319-0.354-0.094-0.292-0.355-0.329-0.665-0.090-0.722-0.354-1.415-0.719-2.041-0.382-0.653-0.782-1.281-1.237-1.886-0.464-0.621-0.962-1.217-1.412-1.849-0.090-0.13-0.564-0.719-0.415-0.88 0.108-0.118 0.475 0.071 0.595 0.102 0.66 0.169 1.339 0.238 2.017 0.271 1.516 0.074 3.088-0.154 4.527-0.64 2.546-0.859 5.207-2.702 5.418-5.62 0.1-1.392-0.182-2.824-0.996-3.975-0.811-1.149-2.046-1.89-3.373-2.29-0.709-0.215-1.44-0.345-2.174-0.437-0.754-0.095-1.555-0.159-2.313-0.126-0.745 0.034-1.511 0.059-2.236 0.236-0.36 0.087-0.716 0.128-1.072 0.24-0.341 0.105-0.696 0.181-1.027 0.312-0.711 0.284-1.401 0.576-2.073 0.947-0.644 0.356-1.273 0.737-1.879 1.154-0.618 0.425-1.216 0.885-1.783 1.376-0.098 0.084-0.482 0.54-0.606 0.305-0.092-0.174-0.051-0.425-0.059-0.616-0.003-0.068-0.004-0.149-0.004-0.229 0-1.453 0.514-2.786 1.371-3.827l-0.008 0.010c0.442-0.54 0.95-1.090 1.545-1.466 0.326-0.205 0.644-0.427 0.988-0.604 0.31-0.159 0.636-0.279 0.957-0.415 1.321-0.547 2.816-0.709 4.235-0.642 0.347 0.016 0.727 0.117 1.050 0.248 0.265 0.108 0.498 0.407 0.8 0.254 0.528-0.266 1.088-0.149 1.637-0.312 0.092-0.026 0.244-0.112 0.152-0.23-0.074-0.095-0.242-0.115-0.349-0.14-0.324-0.076-0.649-0.131-0.977-0.181-0.786-0.115-1.571-0.143-2.364-0.154-1.489-0.023-2.962 0.194-4.347 0.755-1.365 0.552-2.638 1.286-3.598 2.43-0.464 0.553-0.809 1.172-1.075 1.84-0.259 0.655-0.351 1.374-0.424 2.067-0.038 0.363-0.051 0.717-0.026 1.082 0.016 0.253 0.123 0.594-0.026 0.824-0.198 0.312-0.505 0.575-0.752 0.847-0.216 0.236-0.377 0.519-0.572 0.775-0.464 0.606-0.881 1.258-1.219 1.942-0.339 0.691-0.583 1.397-0.827 2.126-0.493 1.468-0.588 3.009-0.526 4.546 0.031 0.75 0.164 1.494 0.351 2.22 0.182 0.712 0.406 1.44 0.714 2.108 0.315 0.685 0.616 1.359 0.998 2.011 0.138 0.233 0.449 0.55 0.21 0.809-0.226 0.246-0.47 0.463-0.675 0.731-0.405 0.529-0.788 1.136-0.849 1.814-0.059 0.662 0.062 1.34 0.518 1.844 1.009 1.115 2.605 1.29 4.027 1.21 0.709-0.039 1.434-0.123 2.115-0.33 0.351-0.107 0.711-0.215 1.049-0.355 0.292-0.122 0.618-0.355 0.939-0.228 1.34 0.534 2.877 0.726 4.309 0.734 1.45 0.008 2.977-0.218 4.353-0.683 0.721-0.241 1.419-0.547 2.063-0.957 0.326-0.209 0.763-0.53 1.058-0.78l1.090-0.025c-0.103-0.33 0.12-0.993 0.321-1.2 0.4-0.407 0.803-0.841 1.149-1.307-0.827 2.96 1.956 6.198 5.484 4.5 0.629-0.307 1.412-0.823 1.902-1.32 0.444 0.366 1.999 1.111 2.943 1.497l0.002 0.002c0.126 0.059 0.254 0.113 0.387 0.159 0.821 0.294 1.75 0.341 2.615 0.292 0.709-0.039 1.434-0.123 2.115-0.33 0.351-0.107 0.709-0.215 1.049-0.355 0.292-0.122 0.618-0.355 0.94-0.228 1.339 0.534 2.877 0.726 4.307 0.734 1.45 0.008 2.979-0.218 4.355-0.683 0.721-0.241 1.419-0.547 2.061-0.957 0.326-0.209 0.764-0.53 1.060-0.78l1.088-0.025c-0.101-0.33 0.118-0.993 0.323-1.2 0.994-1.015 2.010-2.174 2.123-3.661 0.057-0.759 0.011-1.494-0.156-2.241zM14.014 27.197c0.162-0.195 0.295-0.422 0.418-0.644 0.264-0.473 0.483-0.993 0.608-1.522 0-0.003 0.002-0.005 0.002-0.010v-0.002s0.002-0.007 0.003-0.016c0.002-0.011 0.004-0.018 0.006-0.026l-0.001 0.003v-0.002c0.002-0.005 0.003-0.012 0.005-0.016v-0.002c0.059-0.254 0.131-0.415 0.434-0.3 0.262 0.099 0.539 0.158 0.811 0.225 0.554 0.14 1.134 0.369 1.64 0.63 0.283 0.144 0.552 0.315 0.818 0.494 0.175 0.118 0.377 0.269 0.195 0.481-0.364 0.415-0.826 0.68-1.316 0.923-0.536 0.264-1.14 0.348-1.732 0.366-0.315 0.008-0.631-0.023-0.945-0.035-0.297-0.011-0.595-0.021-0.885-0.092-0.305-0.079-0.223-0.261-0.061-0.456zM13.133 25.408c-0.020 0.524-0.141 1.051-0.359 1.528-0.125 0.274-0.26 0.312-0.536 0.181-0.247-0.117-0.501-0.215-0.745-0.34-1.078-0.55-2.084-1.194-2.934-2.064-0.364-0.373 0.233-0.379 0.493-0.427 0.6-0.113 1.201-0.102 1.807-0.125 0.007 0 0.015-0.002 0.021-0.002 0.008 0 0.018 0 0.028-0.002 0.011 0 0.023-0.002 0.034-0.002 0.007-0.002 0.013-0.002 0.020-0.002h0.005c0.008 0 0.016-0.002 0.021-0.002 0.011-0.002 0.016-0.002 0.016-0.002 0.31-0.013 0.616-0.038 0.927-0.033 0.305 0.003 0.65-0.016 0.949 0.054 0.367 0.094 0.264 0.954 0.252 1.235zM11.768 21.189c0.395 0.612 0.827 1.24 1.045 1.942 0.126 0.412-0.396 0.266-0.649 0.264-0.375-0.003-0.75 0.012-1.126 0.035-0.724 0.046-1.453 0.105-2.171 0.22-0.267 0.043-0.459 0.079-0.649 0.12l0.084-0.015c-0.138 0.030-0.277 0.112-0.419 0.059-0.202-0.074-0.352-0.479-0.442-0.655-0.326-0.637-0.551-1.322-0.726-2.011-0.098-0.384-0.133-0.795-0.19-1.189-0.054-0.376-0.048-0.759-0.016-1.138 0.106-1.359 0.283-2.822 1.106-3.955 0.003-0.005 0.007-0.008 0.010-0.013 0.013-0.020 0.020-0.026 0.020-0.026v-0.002c0.239-0.312 0.514-0.023 0.77 0.146 0.287 0.19 0.573 0.397 0.882 0.552 0.131 0.066 0.274 0.14 0.287 0.304 0.013 0.161-0.023 0.327-0.023 0.488 0.004 0.373 0.055 0.733 0.146 1.076l-0.007-0.030c0.179 0.686 0.552 1.308 0.891 1.924 0.362 0.658 0.773 1.277 1.178 1.904zM5.856 19.236c0.074 1.502 0.59 2.881 1.176 4.249 0.121 0.282 0.279 0.519-0.102 0.629-0.202 0.059-0.588 0.302-0.773 0.131-0.202-0.184-0.315-0.525-0.419-0.768-0.133-0.309-0.256-0.622-0.326-0.951-0.305-1.423-0.419-2.929-0.149-4.365 0.244-1.299 0.849-2.673 1.742-3.659 0.003-0.003 0.010-0.008 0.016-0.016 0.010-0.011 0.020-0.021 0.020-0.021 0.079-0.080 0.305-0.291 0.351-0.108 0.034 0.141-0.115 0.323-0.185 0.43-0.298 0.452-0.532 0.895-0.737 1.397-0.388 0.949-0.664 2.019-0.613 3.054zM4.731 9.087c0.221-0.241 0.493-0.452 0.734-0.673 0.529-0.486 1.112-0.936 1.699-1.351 0.311-0.22 0.636-0.419 0.952-0.632 0.3-0.202 0.621-0.345 0.937-0.517 1.327-0.727 2.775-1.248 4.27-1.489 0.734-0.118 1.452-0.19 2.199-0.181 0.678 0.008 1.329 0.098 1.996 0.204 1.402 0.22 2.843 0.85 3.868 1.849 0.506 0.491 0.926 1.085 1.198 1.735 0.272 0.652 0.357 1.404 0.346 2.106-0.021 1.331-0.515 2.587-1.404 3.577-0.97 1.075-2.404 1.775-3.791 2.121-1.475 0.368-2.995 0.469-4.506 0.317-0.372-0.038-0.726-0.107-1.093-0.177-0.252-0.048-0.578-0.133-0.803-0.259-0.269-0.151-0.113-0.593-0.061-0.826 0.074-0.319 0.203-0.589 0.375-0.864 0.184-0.294 0.439-0.555 0.6-0.86 0.141-0.269-0.052-0.389-0.315-0.299-0.616 0.215-1.206 0.68-1.607 1.187-0.218 0.276-0.326 0.594-0.493 0.896-0.154 0.282-0.451 0.061-0.659-0.043-0.29-0.144-0.606-0.297-0.873-0.486-0.241-0.172-0.034-0.373 0.128-0.512 0.99-0.869 2.231-1.475 3.6-1.698l0.042-0.006c0.157-0.025 0.351-0.079 0.496 0.018 0.118 0.079 0.193 0.207 0.293 0.305 0.22 0.22 0.475 0.417 0.742 0.576 0.595 0.351 1.329 0.476 2.009 0.488 0.77 0.013 1.498-0.172 2.202-0.478 0.654-0.282 1.296-0.652 1.766-1.197 0.088-0.102 0.475-0.607 0.129-0.635-0.201-0.016-0.431 0.138-0.619 0.195-0.639 0.19-1.363 0.133-1.974-0.123-0.559-0.235-1.216-0.619-1.437-1.222-0.229-0.635 0.2-0.926 0.613-1.3 0 0 0.002-0.002 0.003-0.002v-0.002h0.002c0.003-0.003 0.005-0.007 0.008-0.010 0.2-0.181-0.034-0.199-0.193-0.144-0.166 0.056-0.309 0.123-0.442 0.204l0.009-0.005c-0.29 0.177-0.513 0.424-0.775 0.634-0.575 0.458-1.324 0.732-1.996 1.008-0.731 0.297-1.448 0.626-2.159 0.967-0.672 0.322-1.352 0.634-1.989 1.018-0.329 0.199-0.657 0.394-0.97 0.621-0.21 0.151-0.518 0.488-0.772 0.256-0.505-0.458-0.952-1.064-1.324-1.632-0.198-0.302-0.419-0.627-0.552-0.965-0.125-0.315 0.159-0.497 0.374-0.673 0.492-0.404 1.034-0.742 1.615-0.997 0.3-0.131 0.6-0.25 0.921-0.319 0.102-0.023 0.446-0.144 0.518-0.028 0.052 0.087-0.052 0.255-0.077 0.337-0.048 0.158-0.061 0.327-0.034 0.488 0.044 0.266 0.182 0.537 0.4 0.698 0.49 0.361 1.258 0.291 1.586-0.251 0.328-0.54 0.231-1.202-0.277-1.592-0.534-0.412-1.335-0.286-1.948-0.158-0.179 0.038-0.375 0.038-0.542 0.112-0.152 0.066-0.298 0.143-0.452 0.202-0.341 0.133-0.65 0.323-0.967 0.502-0.313 0.179-0.595 0.373-0.878 0.594-0.159 0.123-0.451 0.476-0.603 0.177-0.115-0.225-0.234-0.58-0.044-0.786zM0.908 18.634c0 0.005-0.002 0.010-0.002 0.013 0 0.005-0.002 0.010-0.002 0.015v0.002c0 0.003 0 0.007-0.002 0.010v0.008c0 0.003-0.002 0.007-0.002 0.008v0.005c0 0.003-0.002 0.005-0.002 0.008v0.002c-0.015 0.209-0.026 0.427-0.113 0.619-0.134-0.184-0.084-0.525-0.090-0.739-0.008-0.289-0.052-0.565-0.043-0.859 0.016-0.566 0.11-1.118 0.177-1.681 0.175-1.437 0.781-2.832 1.486-4.078 0.372-0.658 0.821-1.282 1.322-1.85 0.082-0.094 0.406-0.598 0.537-0.348 0.052 0.102 0.064 0.22 0.102 0.327 0.047 0.13 0.12 0.266 0.057 0.404-0.080 0.172-0.244 0.323-0.357 0.473-0.111 0.146-0.223 0.294-0.333 0.443-0.215 0.291-0.426 0.58-0.613 0.89-0.39 0.652-0.703 1.331-1.011 2.023-0.3 0.675-0.516 1.382-0.68 2.101-0.164 0.729-0.377 1.463-0.434 2.205zM2.307 24.814c-0.17-0.314-0.326-0.637-0.441-0.975-0.477-1.392-0.59-2.916-0.521-4.377 0.036-0.752 0.12-1.525 0.29-2.259 0.164-0.701 0.369-1.417 0.639-2.082 0.293-0.721 0.531-1.45 0.936-2.121 0.365-0.601 0.7-1.218 1.18-1.737 0.011-0.013 0.023-0.023 0.034-0.034 0.008-0.008 0.008-0.010 0.008-0.010 0.213-0.222 0.329-0.080 0.449 0.154 0.151 0.297 0.354 0.561 0.549 0.831 0.202 0.277 0.426 0.537 0.654 0.793 0.197 0.222 0.467 0.425 0.624 0.676 0.141 0.223-0.226 0.492-0.367 0.619-0.262 0.238-0.467 0.517-0.69 0.788-0.429 0.525-0.824 1.075-1.145 1.675-1.281 2.41-2.053 5.137-1.311 7.841 0.049 0.181 0.095 0.364 0.164 0.54 0.044 0.112 0.116 0.266 0.054 0.384-0.090 0.174-0.372 0.343-0.539 0.179-0.239-0.233-0.41-0.596-0.567-0.885zM8.070 30.801c-0.28 0.171-0.603 0.261-0.911 0.369-0.719 0.253-1.493 0.333-2.251 0.355-1.122 0.033-2.682-0.199-3.37-1.205-0.844-1.235 0.054-2.757 1.095-3.536 0.295-0.222 0.546 0.245 0.719 0.433 0.241 0.261 0.496 0.506 0.76 0.744 0.519 0.468 1.037 0.962 1.617 1.358 0.005 0.003 0.010 0.007 0.016 0.009l0.001 0c0.011 0.008 0.052 0.035 0.059 0.039 0.002 0.002 0.002 0.002 0.003 0.002l0.008 0.005c0.146 0.105 0.283 0.24 0.475 0.238 0.026-0.186-0.265-0.369-0.388-0.461-0.18-0.136-0.369-0.261-0.536-0.412-0.392-0.351-0.745-0.719-1.091-1.115-0.303-0.345-0.668-0.744-0.87-1.159-0.080-0.166 0.036-0.31 0.193-0.366 0.151-0.054 0.254 0.122 0.315 0.227 0.464 0.8 1.072 1.551 1.714 2.213 0.668 0.691 1.401 1.29 2.222 1.793 0.182 0.11 0.537 0.277 0.221 0.47zM10.822 29.023c-0.282-0.048-0.588-0.266-0.829-0.412-0.569-0.338-1.093-0.75-1.539-1.241-0.454-0.501-0.878-1.033-1.278-1.579-0.17-0.233-0.401-0.484-0.516-0.75-0.098-0.23 0.175-0.266 0.341-0.309l0.003-0.002c0.002-0.002 0.002-0.002 0.002 0l0.002-0.002 0.010-0.002c0.005-0.002 0.010-0.003 0.016-0.005 0.013-0.005 0.023-0.007 0.031-0.008 0.002-0.002 0.005-0.002 0.008-0.003 0.002 0 0.003-0.002 0.007-0.002 0.003-0.002 0.005-0.002 0.005-0.002 0.244-0.079 0.549-0.2 0.76 0 0.208 0.199 0.4 0.412 0.611 0.607 0.485 0.45 0.991 0.87 1.535 1.249s1.116 0.721 1.707 1.023c0.144 0.072 0.567 0.213 0.434 0.437-0.129 0.218-0.382 0.42-0.567 0.589-0.192 0.172-0.462 0.458-0.744 0.41zM17.933 29.965c-0.38 0.419-1.134 0.346-1.64 0.335-0.706-0.016-1.421-0.049-2.117-0.172-0.687-0.123-1.375-0.314-2.032-0.548-0.075-0.026-0.283-0.077-0.29-0.181-0.008-0.115 0.202-0.232 0.274-0.291 0.239-0.199 0.478-0.397 0.709-0.601l0.002-0.002 0.005-0.005 0.002-0.002s0.011-0.008 0.021-0.020c0.010-0.008 0.020-0.018 0.030-0.026l0.002-0.002c0.254-0.217 0.423-0.254 0.77-0.187 0.338 0.066 0.683 0.087 1.027 0.105 0.655 0.034 1.316 0.034 1.968-0.074 0.070-0.013 0.603-0.184 0.49 0.041-0.107 0.215-0.287 0.736 0.041 0.568 0.405-0.2 1.257 0.494 0.739 1.061zM20.763 28.296c-0.206 0.076-0.457 0.095-0.675 0.095-0.573 0-1.119-0.294-1.683-0.387-0.005 0-0.010-0.002-0.013-0.002h-0.002c-0.007-0.002-0.011-0.002-0.016-0.002h-0.002l-0.002-0.002h-0.003c-0.002 0-0.005-0.002-0.008-0.002-0.111-0.016-0.231-0.025-0.326-0.094 0.079-0.148 0.239-0.215 0.375-0.297 0.174-0.105 0.315-0.199 0.453-0.298l-0.020 0.014c0.223-0.159 0.405-0.374 0.626-0.529 0.228-0.158 0.451 0.149 0.593 0.294 0.226 0.232 0.433 0.483 0.659 0.713 0.159 0.156 0.337 0.387 0.044 0.496zM26.625 20.062c0.002-0.005 0.002-0.008 0.003-0.015v-0.002c0.002-0.005 0.002-0.010 0.003-0.016 0.002-0.010 0.005-0.021 0.007-0.031v-0.002l0.003-0.013c0.002-0.002 0.002-0.003 0.002-0.005 0.634-2.632 4.855 0.939 0.647 3.421-0.488-1.013-0.898-2.2-0.665-3.338zM29.941 30.159c-0.002 0.002-0.003 0.002-0.005 0.003-0.010 0.007-0.018 0.011-0.025 0.016-0.003 0.002-0.005 0.003-0.008 0.005-0.016 0.011-0.021 0.013-0.021 0.013-3.67 2.279-6.624-3.026-3.511-5.615 1.003 1.954 2.467 3.714 4.090 5.175-0.174 0.133-0.346 0.268-0.519 0.402zM45.793 27.197c0.162-0.195 0.293-0.422 0.418-0.644 0.264-0.473 0.483-0.993 0.606-1.522 0-0.002 0-0.003 0.002-0.005s0.002-0.007 0.002-0.013c0.003-0.007 0.003-0.015 0.007-0.021 0-0.005 0.002-0.008 0.002-0.013 0.002-0.008 0.003-0.016 0.007-0.023 0-0.002 0.002-0.003 0.002-0.003 0.057-0.251 0.133-0.41 0.433-0.296 0.262 0.099 0.539 0.158 0.809 0.225 0.554 0.14 1.132 0.369 1.64 0.63 0.283 0.144 0.552 0.315 0.816 0.494 0.175 0.118 0.377 0.269 0.193 0.481-0.364 0.415-0.824 0.68-1.314 0.923-0.536 0.264-1.14 0.348-1.733 0.366-0.315 0.008-0.629-0.023-0.945-0.034-0.295-0.012-0.595-0.021-0.883-0.092-0.303-0.076-0.221-0.258-0.059-0.453zM44.911 25.408c-0.020 0.524-0.143 1.051-0.359 1.528-0.126 0.274-0.262 0.312-0.537 0.181-0.247-0.117-0.5-0.215-0.745-0.34-1.076-0.55-2.084-1.194-2.933-2.064-0.364-0.373 0.233-0.379 0.492-0.427 0.601-0.113 1.201-0.102 1.809-0.125 0.007 0 0.015-0.002 0.021-0.002 0.008 0 0.018 0 0.028-0.002 0.012 0 0.023-0.002 0.034-0.002 0.007-0.002 0.011-0.002 0.020-0.002h0.005c0.008 0 0.016-0.002 0.021-0.002 0.011-0.002 0.016-0.002 0.016-0.002 0.31-0.013 0.616-0.038 0.927-0.033 0.305 0.003 0.65-0.016 0.949 0.056 0.365 0.092 0.262 0.952 0.252 1.233zM43.547 21.189c0.395 0.612 0.827 1.24 1.044 1.942 0.128 0.412-0.397 0.266-0.649 0.264-0.375-0.003-0.749 0.012-1.124 0.035-0.724 0.046-1.453 0.105-2.171 0.22-0.267 0.043-0.459 0.079-0.649 0.12l0.084-0.015c-0.138 0.030-0.275 0.112-0.421 0.059-0.2-0.074-0.351-0.479-0.441-0.655-0.326-0.637-0.55-1.322-0.726-2.011-0.098-0.384-0.134-0.795-0.19-1.189-0.054-0.376-0.048-0.759-0.018-1.138 0.106-1.35 0.28-2.799 1.088-3.93 0.007-0.008 0.011-0.016 0.020-0.026l0.002-0.002 0.021-0.030c0.242-0.327 0.521-0.034 0.778 0.138 0.288 0.19 0.575 0.397 0.883 0.552 0.131 0.066 0.274 0.14 0.287 0.304 0.011 0.161-0.025 0.327-0.023 0.488 0.004 0.373 0.054 0.733 0.145 1.077l-0.007-0.031c0.18 0.686 0.554 1.308 0.891 1.924 0.36 0.658 0.77 1.277 1.176 1.904zM37.635 19.236c0.074 1.502 0.59 2.881 1.176 4.249 0.121 0.282 0.279 0.519-0.102 0.629-0.202 0.059-0.588 0.302-0.773 0.131-0.2-0.184-0.315-0.525-0.419-0.768-0.131-0.309-0.254-0.622-0.326-0.951-0.303-1.423-0.418-2.929-0.149-4.365 0.244-1.299 0.849-2.671 1.74-3.656 0.002-0.002 0.003-0.003 0.005-0.005l0.005-0.005c0.005-0.005 0.011-0.013 0.016-0.018v-0.002l0.002-0.002 0.005-0.005c0.001-0.001 0.002-0.003 0.003-0.005l0-0s0.002 0 0.002-0.002l0.002-0.002c0.080-0.080 0.306-0.291 0.351-0.108 0.034 0.141-0.115 0.323-0.184 0.43-0.3 0.451-0.532 0.895-0.737 1.397-0.392 0.952-0.668 2.023-0.616 3.057zM36.508 9.087c0.221-0.241 0.492-0.452 0.734-0.673 0.529-0.486 1.113-0.936 1.699-1.351 0.311-0.22 0.636-0.419 0.95-0.632 0.3-0.202 0.623-0.345 0.937-0.517 1.327-0.727 2.775-1.248 4.27-1.489 0.734-0.118 1.452-0.19 2.199-0.181 0.678 0.008 1.329 0.098 1.996 0.204 1.401 0.22 2.843 0.85 3.87 1.849 0.506 0.491 0.925 1.085 1.197 1.735 0.274 0.652 0.357 1.404 0.346 2.106-0.021 1.331-0.515 2.587-1.404 3.577-0.968 1.075-2.404 1.775-3.79 2.121-1.475 0.368-2.997 0.469-4.506 0.317-0.372-0.038-0.726-0.107-1.095-0.177-0.251-0.048-0.577-0.133-0.803-0.259-0.269-0.151-0.113-0.593-0.061-0.826 0.072-0.319 0.203-0.589 0.375-0.864 0.183-0.294 0.439-0.555 0.6-0.86 0.141-0.269-0.051-0.389-0.313-0.299-0.616 0.215-1.206 0.68-1.607 1.187-0.218 0.276-0.326 0.594-0.493 0.896-0.154 0.282-0.451 0.061-0.659-0.043-0.292-0.144-0.608-0.297-0.873-0.486-0.241-0.172-0.034-0.373 0.128-0.512 0.99-0.869 2.231-1.475 3.6-1.698l0.042-0.006c0.157-0.025 0.351-0.079 0.495 0.018 0.118 0.079 0.193 0.207 0.293 0.305 0.218 0.22 0.475 0.417 0.742 0.576 0.593 0.351 1.327 0.476 2.009 0.488 0.77 0.013 1.498-0.172 2.2-0.478 0.654-0.282 1.298-0.652 1.768-1.197 0.088-0.102 0.474-0.607 0.129-0.635-0.2-0.016-0.429 0.138-0.618 0.195-0.639 0.19-1.363 0.133-1.974-0.123-0.559-0.235-1.217-0.619-1.437-1.222-0.231-0.635 0.2-0.926 0.613-1.3 0 0 0.002 0 0.003-0.002v-0.002l0.013-0.013c0.005-0.005 0.007-0.005 0.007-0.005 0.18-0.172-0.048-0.189-0.203-0.136-0.166 0.056-0.31 0.123-0.444 0.204l0.010-0.006c-0.288 0.177-0.511 0.424-0.773 0.634-0.575 0.458-1.324 0.732-1.996 1.008-0.731 0.297-1.448 0.626-2.159 0.967-0.672 0.322-1.35 0.634-1.989 1.018-0.331 0.199-0.659 0.394-0.97 0.621-0.211 0.151-0.518 0.488-0.773 0.256-0.503-0.458-0.952-1.064-1.322-1.632-0.198-0.302-0.419-0.627-0.554-0.965-0.123-0.315 0.161-0.497 0.375-0.673 0.492-0.404 1.032-0.742 1.615-0.997 0.298-0.131 0.6-0.25 0.919-0.319 0.102-0.023 0.446-0.144 0.518-0.028 0.052 0.087-0.052 0.255-0.077 0.337-0.031 0.095-0.048 0.204-0.048 0.317 0 0.060 0.005 0.119 0.015 0.177l-0.001-0.006c0.044 0.266 0.18 0.537 0.4 0.698 0.49 0.361 1.258 0.291 1.586-0.251 0.328-0.54 0.231-1.202-0.277-1.592-0.532-0.412-1.334-0.286-1.948-0.158-0.177 0.038-0.374 0.038-0.542 0.112-0.152 0.066-0.297 0.143-0.454 0.202-0.341 0.133-0.65 0.323-0.967 0.502-0.313 0.179-0.595 0.373-0.878 0.594-0.159 0.123-0.451 0.476-0.603 0.177-0.113-0.225-0.231-0.58-0.043-0.786zM36.169 11.264c0.010-0.010 0.020-0.020 0.028-0.030l0.010-0.010c0.002-0.002 0.003-0.002 0.003-0.002 0-0.002 0.002-0.002 0.002-0.002 0.215-0.223 0.331-0.080 0.449 0.154 0.151 0.297 0.354 0.562 0.549 0.831 0.202 0.277 0.426 0.537 0.654 0.793 0.197 0.222 0.465 0.425 0.624 0.676 0.141 0.223-0.226 0.493-0.369 0.619-0.262 0.238-0.467 0.517-0.69 0.788-0.429 0.525-0.826 1.075-1.145 1.675-1.121 2.11-1.853 4.461-1.52 6.825-0.336 0.020-0.757 0.008-1.206-0.013-0.405-1.317-0.498-2.738-0.434-4.106 0.036-0.752 0.118-1.525 0.29-2.259 0.164-0.701 0.369-1.417 0.639-2.082 0.292-0.721 0.531-1.45 0.936-2.121 0.365-0.603 0.701-1.22 1.181-1.737zM35.191 25.52c-0.090 0.174-0.372 0.343-0.539 0.179-0.238-0.233-0.41-0.596-0.565-0.885-0.049-0.090-0.098-0.181-0.141-0.273 0.38-0.021 0.731-0.085 0.955-0.23l0.005 0.025c0.021 0.087 0.043 0.172 0.066 0.259 0.051 0.181 0.095 0.364 0.164 0.54 0.046 0.112 0.118 0.268 0.056 0.384zM32.685 18.634c0 0.005-0.002 0.010-0.002 0.015s-0.002 0.010-0.002 0.016v0.002c0 0.003 0 0.008-0.002 0.012v0.007c0 0.002 0 0.005-0.002 0.007 0.002 0.002 0 0.003 0 0.005v0.005c0 0.002 0 0.005-0.002 0.007v0.003c-0.013 0.208-0.028 0.424-0.113 0.616-0.133-0.184-0.085-0.525-0.090-0.739-0.008-0.289-0.051-0.565-0.043-0.859 0.016-0.566 0.108-1.118 0.175-1.681 0.175-1.437 0.782-2.832 1.486-4.078 0.402-0.7 0.839-1.306 1.331-1.862l-0.010 0.012c0.084-0.094 0.406-0.598 0.539-0.348 0.052 0.102 0.064 0.22 0.102 0.327 0.046 0.13 0.12 0.266 0.056 0.404-0.079 0.172-0.242 0.323-0.357 0.473-0.113 0.146-0.223 0.294-0.333 0.443-0.215 0.291-0.426 0.58-0.613 0.89-0.39 0.652-0.703 1.331-1.011 2.023-0.301 0.675-0.516 1.382-0.68 2.101-0.159 0.726-0.374 1.46-0.431 2.202zM32.49 27.586c0.349-1.006 0.401-2.223-0.249-3.121 0.203 0.015 0.616 0.062 1.070 0.079 0.169 0.351 0.346 0.698 0.544 1.036 0.138 0.233 0.451 0.55 0.211 0.809-0.226 0.246-0.47 0.463-0.675 0.731-0.405 0.529-0.788 1.136-0.849 1.814-0.021 0.245-0.020 0.491 0.016 0.729 0.023 0.159 0.061 0.315 0.116 0.466-0.972-0.696-0.96-0.314-0.185-2.543zM39.847 30.801c-0.28 0.171-0.603 0.261-0.909 0.369-0.721 0.253-1.493 0.333-2.251 0.355-0.396 0.011-0.849-0.010-1.298-0.087-0.819-0.141-1.629-0.466-2.073-1.118-0.051-0.076-0.097-0.151-0.136-0.23-0.598-1.189 0.254-2.574 1.23-3.306 0.297-0.222 0.547 0.245 0.721 0.433 0.241 0.261 0.495 0.506 0.76 0.744 0.519 0.468 1.037 0.962 1.615 1.358l0.013 0.008c0.003 0.002 0.003 0.002 0.005 0.003s0.003 0.002 0.005 0.003c0.008 0.005 0.034 0.023 0.041 0.028 0.005 0.003 0.008 0.007 0.013 0.010l0.008 0.005c0.146 0.105 0.283 0.24 0.475 0.238 0.026-0.186-0.265-0.369-0.387-0.461-0.18-0.136-0.369-0.261-0.537-0.412-0.392-0.351-0.744-0.719-1.091-1.115-0.303-0.345-0.67-0.744-0.87-1.159-0.080-0.166 0.034-0.31 0.193-0.366 0.151-0.054 0.254 0.122 0.315 0.227 0.464 0.8 1.072 1.551 1.712 2.213 0.67 0.691 1.401 1.29 2.223 1.793 0.182 0.108 0.537 0.276 0.221 0.468zM42.6 29.023c-0.282-0.048-0.588-0.266-0.831-0.412-0.567-0.338-1.091-0.75-1.537-1.241-0.455-0.501-0.878-1.033-1.278-1.579-0.17-0.233-0.401-0.484-0.516-0.75-0.1-0.23 0.175-0.266 0.339-0.309l0.003-0.002c0.002-0.002 0.002-0.002 0.002 0l0.002-0.002 0.010-0.002c0.005-0.002 0.010-0.003 0.016-0.005 0.013-0.005 0.023-0.007 0.029-0.008 0.002-0.002 0.005-0.002 0.008-0.003 0.002 0 0.003-0.002 0.005-0.002 0.003-0.002 0.005-0.002 0.005-0.002 0.244-0.079 0.549-0.2 0.76 0 0.208 0.199 0.4 0.412 0.611 0.607 0.485 0.45 0.991 0.87 1.534 1.249 0.485 0.342 1.044 0.681 1.625 0.984l0.082 0.039c0.143 0.072 0.565 0.213 0.433 0.437-0.128 0.218-0.382 0.42-0.565 0.589-0.185 0.172-0.454 0.458-0.737 0.41zM49.712 29.965c-0.38 0.419-1.134 0.346-1.64 0.335-0.706-0.016-1.421-0.049-2.117-0.172-0.685-0.123-1.375-0.314-2.032-0.548-0.075-0.026-0.282-0.077-0.292-0.181-0.008-0.115 0.202-0.232 0.275-0.291 0.238-0.199 0.475-0.396 0.709-0.601 0 0 0.002 0 0.002-0.002l0.011-0.010c0.007-0.005 0.011-0.010 0.018-0.016 0.015-0.013 0.023-0.020 0.026-0.023 0.259-0.222 0.426-0.261 0.775-0.19 0.338 0.066 0.685 0.087 1.027 0.105 0.655 0.034 1.317 0.034 1.968-0.074 0.070-0.013 0.603-0.184 0.49 0.041-0.108 0.215-0.287 0.736 0.041 0.568 0.401-0.202 1.255 0.493 0.737 1.059zM52.542 28.296c-0.206 0.076-0.457 0.095-0.675 0.095-0.569 0-1.109-0.289-1.67-0.386-0.005-0.002-0.008-0.002-0.013-0.002-0.005-0.002-0.010-0.002-0.015-0.002-0.007-0.002-0.013-0.002-0.016-0.002-0.002-0.002-0.002-0.002-0.003-0.002h-0.003c-0.003-0.002-0.005-0.002-0.008-0.002-0.002-0.002-0.003-0.002-0.003-0.002-0.11-0.015-0.229-0.023-0.321-0.092 0.077-0.148 0.239-0.215 0.375-0.297 0.147-0.089 0.293-0.184 0.434-0.284 0.223-0.159 0.405-0.374 0.626-0.529 0.228-0.158 0.451 0.149 0.593 0.294 0.226 0.232 0.433 0.483 0.659 0.713 0.154 0.156 0.333 0.387 0.041 0.496z"></path>
</symbol>
</svg>
